<?xml version="1.0" standalone="no"?>
<!DOCTYPE svg PUBLIC "-//W3C//DTD SVG 1.1//EN" "http://www.w3.org/Graphics/SVG/1.1/DTD/svg11.dtd" >
<svg xmlns="http://www.w3.org/2000/svg" xmlns:xlink="http://www.w3.org/1999/xlink" version="1.1">
<metadata>
Created by FontForge 20170731 at Mon Oct 16 08:15:20 2017
 By Aleksey,,,
Copyright (c) 2017 by MaulanaCreative. All rights reserved.
</metadata>
<defs>
<font id="OtenticSignature" horiz-adv-x="195" >
  <font-face 
    font-family="Otentic Signature"
    font-weight="400"
    font-stretch="normal"
    units-per-em="1000"
    panose-1="0 0 0 0 0 0 0 0 0 0"
    ascent="750"
    descent="-250"
    x-height="336"
    cap-height="726"
    bbox="-248.065 -246.571 902.083 745.6"
    underline-thickness="50"
    underline-position="-150"
    unicode-range="U+000D-201D"
  />
<missing-glyph 
 />
    <glyph glyph-name="tt" unicode="tt" horiz-adv-x="362" 
d="M412 524q2 -9 -6 -12q-4 -1 -7 -1t-7 -1q-14 -1 -27 -1.5t-27 -2.5t-28 -2.5t-28 -2.5q-5 0 -9 -0.5t-9 -0.5h-1q-1 0 -2 -0.5t-2 -0.5q-3 0 -3 -3q-5 -14 -10 -27t-10 -27q-20 -54 -33 -108q-6 -26 -11.5 -52t-8.5 -53q-2 -13 -2.5 -26t1.5 -27l3 -9q2 -5 6 -4
q5 2 9.5 4.5t8.5 5.5q15 11 27.5 23.5t25.5 26.5q23 26 46.5 51.5t46.5 51.5l6 6q4 4 8.5 3.5t7.5 -3.5q8 -8 0 -16q-12 -14 -24.5 -27.5t-25.5 -27.5q-36 -41 -73 -79q-19 -21 -38 -33q-5 -3 -11.5 -5.5t-14.5 -2.5q-16 0 -24 16q-5 8 -6 17t-2 17q0 21 2.5 40.5t5.5 39.5
q-6 -7 -11.5 -13t-11.5 -13q-19 -20 -37 -39.5t-37 -39.5q-18 -20 -37 -32q-13 -8 -26 -8q-15 0 -25 16q-7 15 -7 34q-1 29 3.5 56t10.5 54q2 7 3 13t3 13q10 46 23 89t27 81l-88 -7q-11 -1 -23 -2l-24 -2q-17 -2 -35 -4t-35 -4q-18 -2 -35 -4.5t-34 -4.5q-16 -2 -16 13
q0 5 4.5 7t7.5 3h1q15 2 30 3.5t30 3.5q17 2 34.5 4t35.5 4q14 2 27 3t27 2l66 6h9l27 2q22 57 40.5 96t24.5 50l2 2v2q1 0 1 1q8 16 16.5 31.5t19.5 29.5q2 3 4 5.5t4 4.5q6 6 14 2q9 -4 6 -13q-1 -8 -6 -16q-12 -23 -24 -45l-24 -44q-13 -25 -25 -49t-23 -50q0 -3 -1 -4h2
h5q5 1 15 1h1q10 1 20 1.5t20 1.5q5 1 11 1.5t11 0.5q6 1 14.5 1.5t16.5 1.5q9 1 19 2l20 1q23 58 41.5 96.5t24.5 50.5l1 1q0 1 1 2v1q9 16 17.5 31.5t19.5 30.5q2 3 8 9t13 2q9 -3 7 -13q-2 -4 -3 -8t-3 -8q-12 -23 -24 -44.5t-24 -44.5q-27 -48 -48 -99q-1 -1 -1 -4h1h6
q5 1 15 1l1 1l39 3q17 1 32.5 2t32.5 3h7q9 0 11 -9zM178 327q11 46 24 89t27 81q-4 0 -7 -0.5t-7 -0.5q-2 0 -3.5 -0.5t-3.5 -0.5l-36 -3q-5 0 -9 -0.5t-9 -0.5q-14 -2 -28 -2.5t-28 -2.5q-5 0 -10 -0.5t-10 -0.5l-3 -1q-3 0 -4 -3q-5 -14 -10 -27.5t-10 -27.5
q-9 -26 -17 -53t-15 -54q-7 -26 -12.5 -52t-8.5 -53q-2 -14 -2 -26.5t2 -26.5q0 -3 2 -9q1 -6 7 -4q5 2 9 4.5t8 4.5q15 11 28 24t25 27l93 102l6 6q0 3 0.5 5.5t1.5 5.5z" />
    <glyph glyph-name=".notdef" 
 />
    <glyph glyph-name=".null" horiz-adv-x="0" 
 />
    <glyph glyph-name="nonmarkingreturn" unicode="&#xd;" 
 />
    <glyph glyph-name="NULL" horiz-adv-x="0" 
 />
    <glyph glyph-name="NULL" horiz-adv-x="0" 
 />
    <glyph glyph-name="space" unicode=" " 
 />
    <glyph glyph-name="exclam" unicode="!" horiz-adv-x="142" 
d="M154 665q5 -3 4 -10q-1 -2 -2 -4.5t-1 -4.5q-4 -12 -7 -24l-6 -24l-18 -58t-17 -58q-23 -75 -46 -149.5t-46 -150.5q-6 -19 -12 -37.5t-11 -36.5q-1 -5 -2.5 -8t-3.5 -6q-3 -12 -14 -8q-9 4 -6 14q5 20 11.5 40.5t12.5 41.5q22 71 43.5 141.5t43.5 141.5q14 48 28.5 94
t29.5 94q1 3 3 6t4 5q6 6 12 1zM-43 18q4 0 7 -3t2 -8q-1 -8 -10 -15q-7 -3 -11 1q-6 4 -3 11q2 5 6 9.5t9 4.5z" />
    <glyph glyph-name="quotedbl" unicode="&#x22;" horiz-adv-x="169" 
d="M174 607q-1 -4 -5 -14q-2 -8 -4.5 -16t-5.5 -16q-1 -3 -5 -9q-5 -6 -13 -3q-8 4 -5 12q5 13 9 25t9 24q3 8 12 8q7 -2 8 -9v-2zM134 623q9 -3 5 -14q-1 -3 -2 -5.5t-2 -5.5q-2 -5 -3 -8.5t-2 -8.5q-3 -11 -12 -11q-5 0 -8 4.5t-1 10.5q2 5 4 11l4 12t4 9q5 9 13 6z" />
    <glyph glyph-name="numbersign" unicode="#" horiz-adv-x="213" 
d="M16 252q-4 -1 -6.5 -1.5t-5.5 -0.5q-13 0 -11 10q1 6 7 7q5 2 9.5 3t9.5 2q3 0 5 4q2 8 4 14t4 14q-5 -1 -8 -1.5t-6 -0.5h-13h-2q-8 3 -8 10q1 7 9 9q9 1 17 1t16 1q2 0 2 2q6 15 11 30.5t10 30.5q1 2 1 7q4 7 9 5q8 -2 8 -7q0 -6 -2 -14q-3 -12 -6.5 -24t-7.5 -23
q-1 -1 -1 -4q7 1 13.5 1.5t14.5 0.5l1 2q4 11 7 19.5t8 17.5q0 3 4 9t11 4q7 -4 4 -13q-3 -10 -6.5 -18.5t-7.5 -18.5q6 0 11.5 0.5t10.5 -0.5h10.5t10.5 -1q6 -1 10 -8q3 -7 0 -12q-7 -4 -11 -1t-9 3h-11q-6 -1 -12.5 -1t-13.5 -1l-2 -1q-5 -10 -6 -17q5 1 9 1.5t9 0.5h8
t8 -1q9 -2 7 -11q-2 -10 -11 -8q-10 1 -18 -0.5t-19 -3.5q-1 0 -1 -3q-5 -17 -9.5 -32.5t-9.5 -32.5q0 -1 2 -7q2 -10 -4 -12q-5 -5 -11 2q-10 9 -5 23q3 14 6.5 27t7.5 26q1 1 1 4q-2 0 -3 -0.5t-2 -0.5q-6 -2 -11.5 -2.5t-10.5 -2.5l-3 -3q-5 -15 -9 -30.5t-8 -30.5
q-1 -2 -0.5 -3.5t0.5 -4.5q2 -8 -4 -10q-6 -4 -12 2q-4 4 -4.5 8.5t0.5 9.5q3 11 6 22.5t6 23.5q1 2 1.5 5t1.5 5zM46 279h1q6 2 12.5 3.5t14.5 3.5h2q2 5 3.5 11t3.5 11q-8 0 -14.5 -0.5t-13.5 -1.5q-1 0 -1 -2q-5 -14 -8 -25z" />
    <glyph glyph-name="dollar" unicode="$" horiz-adv-x="220" 
d="M21 110q-5 -1 -8.5 -1.5t-8.5 -0.5q-19 -1 -29 10.5t-12 30.5q-2 12 1 23.5t7 21.5q9 29 28 53q7 9 14 13q6 5 12 3t9 -8q3 -7 -1 -11q-3 -5 -11 -3q-2 1 -4 -1q-5 -8 -9.5 -15t-9.5 -15q-11 -21 -15 -43q-1 -7 -1 -13t3 -13q2 -11 11 -11q16 -2 31 6l2 4q7 24 14 48.5
t15 49.5q5 13 -4 22q-16 17 -19 43q-1 11 1 20t6 19q15 35 39 61q8 11 17.5 20t19.5 18q0 2 2 4q8 26 15.5 51.5t15.5 50.5q3 11 7.5 21.5t6.5 19.5q4 8 7 10q3 8 11 2q6 -4 3 -11q-4 -12 -8.5 -24.5t-7.5 -25.5q-12 -36 -21 -72q-1 0 -1 -3q3 1 5.5 2t5.5 1q9 2 14.5 -3
t5.5 -12v-12.5t-2 -11.5q-5 -26 -11 -51.5t-12 -50.5q-3 -12 -13 -10q-5 1 -7 5t0 9q5 25 11 49.5t11 49.5q3 7 3 16h-2q-5 -3 -9.5 -7t-9.5 -7q-1 -1 -1 -2t-1 -2q-13 -42 -25 -83.5t-24 -83.5q-2 -4 1 -8q6 -8 12.5 -14.5t11.5 -14.5q16 -26 -2 -51q-7 -11 -16 -19
t-20 -15q-7 -5 -13 -8.5t-12 -8.5q-4 -1 -5 -4q-11 -37 -21.5 -73t-21.5 -71q-4 -11 -6.5 -21t-8.5 -19q-4 -5 -10 -4q-5 0 -7 4t0 10q3 8 5.5 16t5.5 16q11 33 20 66.5t20 66.5v2zM70 275q9 32 18.5 62.5t19.5 62.5q-2 -1 -4 -3q-5 -5 -9.5 -11t-8.5 -11
q-8 -12 -15.5 -24.5t-11.5 -26.5q-7 -26 11 -49zM55 151h1q6 3 10.5 7t9.5 7q6 5 11.5 10.5t9.5 12.5q5 7 2 17q-3 8 -8.5 14.5t-11.5 12.5q-6 -21 -12 -41z" />
    <glyph glyph-name="percent" unicode="%" horiz-adv-x="250" 
d="M249 575q10 -4 10 -12q0 -7 -1 -10q-4 -8 -8.5 -15.5t-9.5 -15.5q-29 -45 -55 -91.5t-52 -94.5q-21 -39 -42 -78.5t-42 -79.5q-17 -35 -35 -69.5t-37 -69.5q-3 -5 -5.5 -10.5t-4.5 -10.5q3 3 6.5 6t6.5 6q35 35 71 68q1 2 2 2t1 1q8 7 15 0q7 -5 0 -14q-3 -4 -6 -7.5
t-5 -7.5q-4 -6 -5 -10q-1 -1 -1 -6q2 1 3.5 1t3.5 1q14 6 21 17q7 8 -2 17q-7 4 -3 13q5 8 14 4q8 -4 10.5 -10.5t4.5 -14.5q1 -7 -2 -12.5t-7 -10.5q-13 -16 -28 -23q-13 -5 -21 -2t-15 15q-7 -9 -16 -16q-16 -14 -31 -27.5t-30 -27.5q-5 -4 -9 -7t-9 -6q-7 -2 -12 1.5
t-3 9.5q0 6 6 11q1 1 2 1.5t2 2.5q11 23 22.5 45t22.5 44q34 67 69 132q14 26 27 52t27 52q23 42 45 82.5t47 82.5q10 17 20.5 33t20.5 33q1 1 3 5q-17 -4 -33 -10t-32 -13q2 -14 -5.5 -23.5t-18.5 -16.5q-2 -2 -5 -2.5t-5 -1.5q-18 -3 -21 14q-2 6 -0.5 12.5t3.5 12.5
q9 20 27 32q1 1 4 1q14 8 22 -5q18 7 35.5 13.5t36.5 8.5q5 0 6 -1zM135 508q1 0 1 -1q2 3 5 5.5t5 4.5q4 4 3.5 5t-3.5 5l-3 3q-3 -5 -5.5 -10t-2.5 -12z" />
    <glyph glyph-name="ampersand" unicode="&#x26;" horiz-adv-x="259" 
d="M160 383q2 4 3.5 8t3.5 9l22 54t24 55q8 20 16 41t16 41q4 6 5 10q6 8 15 5q3 -2 5.5 -5.5t1.5 -7.5q-4 -8 -6 -14.5t-6 -13.5q-7 -16 -13 -31.5t-13 -30.5q-8 -18 -14.5 -35t-13.5 -34q-8 -20 -16 -40.5t-17 -40.5q-3 -9 -12 -9q-9 2 -10 12q-2 8 -15 12q-8 5 -18 4
t-19 -5q-23 -8 -41.5 -22t-29.5 -35q-6 -8 -6 -16q-5 -16 11 -14q7 2 13.5 3.5t14.5 3.5q11 3 21 7t19 8q2 1 4 1h3q7 0 11.5 -4.5t1.5 -10.5q-2 -7 -6 -10q-17 -13 -30 -29t-24 -33q-5 -9 -8.5 -16.5t-5.5 -15.5v-9q2 1 4.5 0.5t4.5 1.5q19 8 31 20q12 11 24.5 22t23.5 22
q2 2 4.5 4t4.5 4q8 5 15 1q8 -7 7 -15q-2 -5 -2.5 -10t-2.5 -9q-6 -19 -13 -36.5t-14 -36.5l-22 -58t-20 -58q-9 -26 -17.5 -51.5t-17.5 -51.5q-2 -8 -3.5 -15.5t-1.5 -16.5q0 -10 -9 -10q-7 -2 -12 7q-3 9 0 18q5 17 8.5 34.5t9.5 34.5q14 40 28.5 80t29.5 81q6 16 11.5 31
t11.5 31q0 1 1 2t1 2q-8 -7 -16 -13t-16 -13q-8 -8 -18.5 -14t-21.5 -10q-18 -5 -29 6q-10 12 -7 28q2 11 6.5 21.5t10.5 18.5q5 8 11.5 16.5t12.5 16.5q0 2 0.5 2t1.5 2l-20 -5q-6 0 -12 -0.5t-13 0.5q-11 2 -18 11.5t-6 20.5q1 17 11 36q17 25 40.5 41.5t52.5 23.5
q14 4 28.5 2.5t29.5 -11.5z" />
    <glyph glyph-name="quotesingle" unicode="'" horiz-adv-x="161" 
d="M152 608q-1 -3 -2 -6.5t-2 -7.5q-3 -8 -5.5 -16t-5.5 -16q-1 -2 -2 -4.5t-2 -4.5q-6 -6 -14 -3q-7 3 -5 12q5 13 9 25t9 24q3 8 12 8q8 -2 8 -9v-2z" />
    <glyph glyph-name="parenleft" unicode="(" horiz-adv-x="165" 
d="M-47 19q1 28 4 51t6 45q6 37 15.5 72.5t20.5 70.5q10 32 21.5 64t26.5 63q24 49 52 95t61 90q16 21 36 42q2 3 8 5q7 3 12 -2q3 -5 1 -11q-2 -5 -3 -6q0 -5 -7 -7q-5 0 -8 -5l-26 -34t-25 -35q-20 -29 -37 -58.5t-33 -60.5q-20 -39 -35 -78t-27 -80q-8 -26 -15 -52
t-12 -52q-3 -18 -5.5 -36.5t-5.5 -36.5q-1 -11 -1.5 -23t-0.5 -23q1 -14 2 -27.5t3 -27.5t4 -27t4 -27q0 -9 -4 -12q-6 -6 -10 -2q-6 3 -8 9q-2 15 -4 29.5t-4 28.5q-3 17 -4.5 32.5t-1.5 25.5z" />
    <glyph glyph-name="parenright" unicode=")" 
d="M146 533q-1 9 -1 16v15q-2 14 -9 26q-2 1 -4 3l-4 4q-5 9 2 15q9 7 15 0q8 -8 13 -16.5t7 -19.5q2 -12 2.5 -24.5t-1.5 -25.5q-1 -15 -3 -30t-5 -30q-6 -45 -18 -87q-12 -43 -25.5 -85.5t-30.5 -86.5q-14 -39 -29 -78t-33 -77q-10 -20 -20 -39.5t-21 -36.5
q-28 -40 -65 -71q-4 -3 -8.5 -5.5t-9.5 -5.5q-2 -1 -6 -1q-7 0 -9 7q-2 8 4 11q10 4 17 10.5t15 13.5q44 42 70 101q20 38 36 76.5t30 77.5q17 43 31 85.5t27 86.5q8 28 14 55.5t11 55.5q2 16 4 31t4 29z" />
    <glyph glyph-name="asterisk" unicode="*" horiz-adv-x="238" 
d="M168 561q-2 -6 -4.5 -12t-4.5 -13q-4 -9 -7.5 -17.5t-7.5 -18.5q-1 -2 -6 -7q-6 -6 -12 -2q-8 4 -3 12q7 12 12 24.5t10 25.5q1 1 1 2q-2 -1 -3 -2q-3 -2 -7 -5t-6 -6q-2 -2 -4 -2q-7 -7 -12 0q-6 7 2 13q5 5 9.5 8.5t9.5 8.5l3.5 3.5l3.5 3.5q-3 1 -9 1h-14q-7 0 -7 9
q0 7 8 7h28h5q-2 3 -2.5 5.5t-2.5 5.5l-6 15q-3 10 4 13q8 2 11 -5q2 -5 4.5 -9t4.5 -9q0 1 0.5 1t0.5 1q2 5 4 10.5t3 10.5q2 3 2 6t2 7q6 9 12 6q8 -2 5 -12q-2 -5 -3.5 -10.5t-3.5 -10.5q0 -2 -1 -4l2.5 2.5t2.5 1.5q7 5 14 11t15 12l3 3q6 3 11 -2q2 -2 3 -5.5t-1 -5.5
q-2 -3 -5 -6l-5 -5q-8 -5 -15 -11t-15 -12l-4 -4h4h27q2 0 6 -2q6 0 6 -8q0 -6 -6 -7q-4 -2 -10 -2h-33h-5q4 -7 7.5 -13t7.5 -12q3 -3 7 -11q7 -8 -1 -13q-4 -6 -13 2q-6 6 -10.5 13.5t-9.5 15.5q0 3 -2 4z" />
    <glyph glyph-name="plus" unicode="+" horiz-adv-x="247" 
d="M98 289h71h1q11 0 13 -9q1 -9 -10 -11q-9 -1 -18 -1.5t-19 -0.5h-21.5t-21.5 1q-2 0 -4 -4q-8 -26 -16.5 -52.5t-17.5 -52.5q-2 -5 -4 -9.5t-4 -9.5q-3 -8 -13 -4q-8 5 -5 15q10 28 19 55.5t18 56.5q1 2 1 2.5t1 2.5h-20q-10 1 -19 1h-19t-10 10q-2 9 9 9h20.5t19.5 1h23
q3 0 3 3q8 25 16.5 49.5t16.5 50.5q1 2 1 3.5t1 3.5q1 4 4.5 5.5t6.5 0.5q9 -2 7 -11q-2 -8 -3.5 -14.5t-3.5 -14.5q-5 -18 -10.5 -36.5t-12.5 -36.5v-3z" />
    <glyph glyph-name="comma" unicode="," horiz-adv-x="133" 
d="M20 214q3 -3 3 -8q0 -2 -0.5 -4.5t-0.5 -4.5q-2 -7 -5 -13t-9 -11t-12 -3q-5 2 -5 7q1 2 1 3.5t1 3.5q5 5 6.5 10t2.5 10q1 7 8 10t10 0z" />
    <glyph glyph-name="hyphen" unicode="-" horiz-adv-x="218" 
d="M13 267q-8 0 -10 9q-2 8 8 8q8 1 15.5 1h15.5h58q7 0 13 -0.5t12 -1.5h7q7 -2 9 -10q0 -9 -8 -9h-10q-26 0 -52 0.5t-52 1.5q-3 1 -6 1z" />
    <glyph glyph-name="period" unicode="." horiz-adv-x="120" 
d="M11 215q10 0 10 -10t-10 -10t-10 10t10 10z" />
    <glyph glyph-name="slash" unicode="/" horiz-adv-x="250" 
d="M225 607q2 4 6 5t7.5 0.5t5.5 -3t0 -6.5q-19 -39 -36.5 -77.5t-35.5 -77.5q-32 -69 -63.5 -136.5t-62.5 -135.5q-33 -69 -64 -136.5t-63 -136.5q-2 -4 -6 -5t-7.5 -0.5t-5.5 3.5t0 7q19 38 36.5 76.5t35.5 77.5q31 69 63 136.5t63 135.5q33 69 64 136.5t63 136.5z" />
    <glyph glyph-name="zero" unicode="0" horiz-adv-x="193" 
d="M94 484q8 6 17 6t17 -5q34 -18 39 -60q3 -20 1.5 -39t-5.5 -39q-10 -45 -28 -85.5t-44 -78.5q-11 -17 -25 -31.5t-31 -25.5q-15 -10 -31 -13q-11 -2 -20.5 3t-14.5 15q-4 10 -5 20t-1 20q1 20 4 40t8 40q8 32 19 63.5t24 62.5q11 26 23 49.5t27 46.5q2 2 5 5.5t6 5.5
q6 6 15 0zM80 455q0 -2 -1 -2q-11 -20 -21.5 -40.5t-18.5 -40.5q-10 -23 -19 -46.5t-15 -49.5q-8 -25 -13.5 -50t-7.5 -51q-1 -16 3 -31q4 -14 19 -10q17 7 26 16q14 11 25 22.5t20 25.5q29 43 47.5 90t23.5 99q1 12 0.5 23.5t-3.5 22.5q-2 12 -10 21t-19 14q-7 2 -11 -4
q-1 -2 -2 -6t-3 -7q-1 -2 -6 -7q-12 -5 -14 11z" />
    <glyph glyph-name="one" unicode="1" horiz-adv-x="140" 
d="M96 469q-4 -4 -5 -7q-6 -8 -14 -4q-10 4 -4 13q1 3 5 9q6 8 12.5 16t12.5 16l3.5 3.5l3.5 3.5q7 7 14 4q8 -3 8 -14l-2 -10t-3 -10q-8 -24 -15.5 -47t-15.5 -47q-12 -35 -23 -69.5t-22 -69.5q-11 -34 -20 -67.5t-19 -67.5q-2 -5 -3 -9.5t-2 -9.5v-5q0 -8 -6 -12
q-7 -3 -13 2q-6 6 -5 15q2 8 4 15l4 14q14 51 29 100.5t30 100.5q11 33 22.5 66t22.5 66q0 1 2 5h-1z" />
    <glyph glyph-name="two" unicode="2" horiz-adv-x="225" 
d="M13 175q6 0 12 0.5t11 -0.5q11 0 20.5 -0.5t20.5 -1.5q19 -2 38 -3t39 -3q5 0 8 -1q9 0 11 -10q0 -9 -9 -12q-3 -1 -6.5 -1.5t-6.5 0.5q-20 2 -39.5 3t-39.5 3q-23 2 -46.5 2t-46.5 -5q-7 0 -11 1q-5 2 -6 7.5t2 10.5q4 4 7 6q25 18 47 40t42 45q17 20 31.5 40.5
t28.5 41.5q11 16 20.5 32.5t14.5 35.5q5 14 4 26q0 18 -17 13q-5 -1 -9 -3l-8 -4q-20 -12 -37 -28.5t-29 -38.5q-3 -5 -5 -10.5t-1 -11.5q3 -10 -7 -12q-9 -2 -12 7q-3 7 -2 14t4 15q7 16 17 29.5t22 26.5q12 12 25.5 22t30.5 16q18 7 31 0q11 -5 15.5 -14.5t5.5 -22.5
q0 -23 -11 -45q-10 -23 -23 -44.5t-27 -41.5q-20 -29 -42.5 -55.5t-47.5 -50.5q-5 -5 -9.5 -9t-9.5 -9z" />
    <glyph glyph-name="three" unicode="3" horiz-adv-x="200" 
d="M101 375h19q14 -2 21 -9.5t10 -19.5q4 -17 -1 -39q-5 -26 -15.5 -49.5t-24.5 -46.5q-8 -14 -18 -26t-21 -24t-23.5 -21.5t-27.5 -15.5q-17 -6 -31 -2q-22 6 -24 30q-3 37 7 70q8 23 27 30q9 5 13 -4q2 -3 1 -7.5t-5 -6.5q-8 -5 -11 -11t-5 -14q-2 -12 -3 -24t-1 -24
q2 -25 26 -15q10 3 18.5 9t16.5 14q16 15 28 32t23 36q9 16 16 33t10 34q3 15 2 28t-7 17t-19 2q-8 -2 -14 -2q-10 -1 -14.5 5t0.5 15q3 8 7.5 15.5t9.5 14.5q11 17 23 33.5t23 33.5q1 1 1 2t2 3l-8 -4q-22 -14 -42.5 -28t-40.5 -31q-3 -2 -7 -6q-9 -7 -15 -2q-7 5 0 14l4 4
l4 4q22 19 45 36.5t48 31.5q9 5 22 9q10 3 15 -2t3 -15q-2 -9 -6.5 -17t-9.5 -16q-11 -17 -23 -33.5t-23 -33.5q-2 -2 -2.5 -3.5t-2.5 -3.5z" />
    <glyph glyph-name="four" unicode="4" horiz-adv-x="175" 
d="M29 58q-6 4 -7.5 7.5t0.5 11.5q13 51 25.5 101.5t26.5 101.5q9 34 20.5 67.5t25.5 66.5v1v2q-2 -3 -4.5 -5.5t-4.5 -5.5q-8 -9 -17 -18l-18 -18q-5 -5 -15 -10q-22 -8 -27 15q-3 14 2 31q5 25 14.5 48t21.5 46q11 21 22 37l6 6t7 5q6 4 11.5 0t4.5 -11q-2 -7 -6 -8
q-5 -2 -9 -10q-10 -16 -17.5 -31.5t-14.5 -32.5q-5 -14 -10 -26.5t-8 -26.5q-1 -5 -1 -9t-1 -8l1 -1q3 2 5.5 4t4.5 4q11 14 23 26.5t23 25.5q7 8 13.5 15t12.5 14q6 6 8 9q7 7 16 2q4 -2 5.5 -6t-0.5 -9l-15 -36q-22 -48 -38 -97.5t-29 -100.5q-11 -42 -21 -83t-21 -83
q-1 -7 -9 -11h-6z" />
    <glyph glyph-name="five" unicode="5" horiz-adv-x="233" 
d="M60 352q7 3 12.5 6t11.5 5q21 10 42 11q20 2 34.5 -10.5t16.5 -32.5q3 -27 -8 -57q-23 -71 -78 -123q-6 -5 -12.5 -9.5t-13.5 -9.5q-22 -14 -50 -12q-21 1 -24 20q-2 7 0.5 13.5t6.5 12.5q10 13 22 23.5t26 18.5q11 6 15 -3q5 -8 -5 -15q-5 -5 -11 -9.5t-12 -9.5
q-5 -5 -8.5 -10t-8.5 -10q-6 -7 4 -7q21 -2 38 10q14 9 25.5 20.5t21.5 25.5q32 43 45 89q2 9 3.5 18t0.5 18q-3 30 -34 25q-14 -2 -27 -7.5t-26 -13.5q-4 -2 -7.5 -4t-7.5 -4q-10 -5 -17 0q-7 6 -4 16t6 19.5t8 18.5q9 23 18.5 45t19.5 45q1 3 2.5 5.5t3.5 5.5q11 17 30 17
q20 0 40 -0.5t40 -0.5q13 0 11 -11q0 -10 -13 -10q-20 -1 -39.5 -1t-39.5 -1q-8 0 -11 -6q-7 -16 -13.5 -31t-13.5 -31q-5 -11 -9 -21.5t-9 -21.5q0 -2 -2 -6z" />
    <glyph glyph-name="six" unicode="6" horiz-adv-x="153" 
d="M-5 219q7 8 13.5 15t13.5 14q5 5 10.5 9t10.5 8q13 10 25 5.5t15 -19.5q3 -19 -5 -39q-15 -44 -48 -77q-8 -10 -21 -17t-24 -3t-16 17q-5 12 -5.5 25t1.5 26q4 34 14.5 66t23.5 64q15 34 32.5 67t38.5 65q8 11 16 22.5t16 22.5q3 3 9 7q5 3 9.5 2t6.5 -6q5 -9 -6 -14
q-4 -4 -5 -6q-12 -20 -24.5 -38.5t-24.5 -38.5q-16 -26 -29 -53t-24 -56q-6 -17 -11.5 -33.5t-10.5 -33.5zM-4 137q4 2 7 4t6 5q37 36 49 84q4 11 0 18q-1 -1 -1.5 -1t-1.5 -1q-18 -14 -32.5 -31t-23.5 -38q-4 -10 -5 -19.5t2 -20.5z" />
    <glyph glyph-name="seven" unicode="7" horiz-adv-x="200" 
d="M120 340q6 2 11.5 2.5t11.5 1.5q8 2 13 1q11 0 11 -10q0 -9 -11 -11q-10 -2 -19.5 -4t-19.5 -3q-11 -3 -17 -13q-26 -57 -53.5 -113t-54.5 -113l-2 -6t-2 -5q-6 -11 -16 -8q-11 4 -6 15q3 8 6.5 16t7.5 16q23 49 47 97.5t47 98.5l2 4h-4l-14 -4t-15 -4q-2 0 -3 -0.5
t-2 -0.5q-12 -2 -13 7q-2 9 9 13q7 2 13.5 4t13.5 4q15 3 26 7q1 0 4 3q20 34 39 67t39 67q5 9 10 19l10 20q1 1 1 4q-8 2 -18 -1q-14 -5 -28 -9.5t-28 -9.5q-9 -3 -17.5 -6t-16.5 -5q-3 -1 -8 -1q-7 2 -7 9q0 8 8 11q6 2 11.5 4t11.5 4q16 6 31.5 12t32.5 11q18 8 35 4
q10 -2 14.5 -9.5t1.5 -17.5q-2 -8 -5 -15.5t-8 -14.5q-8 -16 -17.5 -31t-18.5 -31q-11 -18 -21.5 -36.5t-21.5 -37.5q0 -1 -1 -2z" />
    <glyph glyph-name="eight" unicode="8" horiz-adv-x="212" 
d="M174 516q5 -3 10 -5t10 -6q19 -18 16 -46q-2 -13 -7 -23.5t-12 -21.5q-24 -35 -60 -58l-3 -3q-2 -7 -12 -9q-1 0 -2 -0.5t-2 -0.5l8 -10l8 -10q12 -15 22 -36q18 -43 -7 -83q-43 -72 -121 -106q-18 -7 -39 -7q-17 1 -27.5 11.5t-9.5 28.5q0 11 3.5 21t8.5 19
q20 38 42.5 74.5t49.5 70.5q7 8 13.5 16t14.5 16q-3 4 -6 7.5t-5 8.5q-8 14 -11.5 29t1.5 32q2 11 7.5 21t13.5 20q23 30 55 44q8 3 16.5 5t17.5 1l2 1q2 -1 5 -1zM93 329q-4 -4 -5 -6q-8 -10 -16.5 -19t-16.5 -20q-20 -28 -38 -57t-35 -60q-5 -8 -8 -16.5t-5 -17.5
q-1 -15 13 -18q8 -1 14.5 0.5t13.5 3.5q27 10 53 30q18 14 34 30.5t27 37.5q8 16 9.5 31t-6.5 32q-6 14 -15 25.5t-19 23.5zM97 362q4 2 7.5 3.5t6.5 3.5q18 11 33 26t28 32q5 8 9 17t6 20q2 22 -17 28q-9 2 -21 -1q-38 -15 -61 -51q-14 -22 -10.5 -40.5t19.5 -37.5z" />
    <glyph glyph-name="nine" unicode="9" horiz-adv-x="177" 
d="M135 407q18 0 18 -17v-4q0 -4 -0.5 -8t-0.5 -8q-2 -5 -3 -10.5t-2 -10.5q-6 -23 -13.5 -45.5t-17.5 -44.5q-8 -19 -17 -36.5t-21 -34.5q-10 -14 -21 -25.5t-25 -20.5q-8 -4 -15.5 -7t-15.5 -4q-15 -3 -29.5 7.5t-15.5 25.5q-1 16 10 32q8 10 17.5 18.5t20.5 14.5
q10 7 16 -1q5 -8 -5 -16q-8 -6 -15.5 -13t-13.5 -15q-3 -3 -5 -7q-4 -9 2 -15q10 -12 24 -6q12 4 21.5 11t17.5 16q14 17 24 34.5t19 36.5q24 51 36 105q1 2 1 6q-5 -5 -8.5 -9.5t-8.5 -9.5q-8 -11 -17 -20.5t-20 -17.5q-10 -7 -20 -11q-20 -7 -27 13q-3 6 -3 13t1 14
q7 41 29 80q13 28 32 47q11 11 24 17q10 3 20 0.5t15 -10.5q8 -13 8 -27.5t-7 -29.5q-2 -2 -4.5 -3.5t-4.5 -3.5q-15 1 -9 17q4 11 1 25q-5 20 -21 5q-4 -3 -7 -6.5t-6 -7.5q-12 -14 -20 -30t-15 -33q-3 -10 -6 -19t-5 -19q-3 -9 0 -20q3 2 7 4q17 13 27 25q10 11 19 21.5
t17 21.5q9 11 18 16z" />
    <glyph glyph-name="colon" unicode=":" horiz-adv-x="140" 
d="M61 330q5 0 8 -2.5t2 -7.5q0 -5 -3 -8.5t-8 -2.5q-10 0 -10 10q0 5 3.5 8t7.5 3zM31 236q10 0 10 -10t-10 -10t-10 10t10 10z" />
    <glyph glyph-name="semicolon" unicode=";" horiz-adv-x="148" 
d="M21 231q3 -3 3 -8q0 -2 -0.5 -4.5t-0.5 -4.5q-2 -7 -5 -13t-9 -11t-12 -3q-5 2 -5 7q1 2 1 3.5t1 3.5q5 5 6.5 10t2.5 10q1 7 8 10t10 0zM41 328q10 0 10 -10q0 -9 -10 -11q-10 0 -10 10q0 11 10 11z" />
    <glyph glyph-name="less" unicode="&#x3c;" horiz-adv-x="208" 
d="M167 356q3 -3 3.5 -7.5t-3.5 -7.5q-56 -49 -119 -89q16 -19 31.5 -37.5t30.5 -38.5q7 -9 0 -15q-3 -3 -7.5 -3.5t-7.5 3.5q-34 42 -71 86q-3 3 -3 7.5t3 7.5q1 1 2 1l2 2q33 20 64 43t60 48q9 7 15 0z" />
    <glyph glyph-name="equal" unicode="=" horiz-adv-x="266" 
d="M173 244q2 -10 -7 -13q-9 0 -17.5 -1t-16.5 -1h-88q-9 0 -17.5 0.5t-16.5 0.5q-8 1 -11.5 5.5t-1.5 9.5t8 5h36h35t35 1q13 0 25 1t25 1q10 0 12 -9zM47 292q-9 0 -11 10q0 9 8 9q10 1 18.5 1h18.5h64q8 0 15.5 -0.5t13.5 -0.5q4 0 8 -2q8 -2 10 -11q0 -9 -9 -10h-11
q-29 1 -59.5 1t-59.5 2q-2 1 -6 1z" />
    <glyph glyph-name="greater" unicode="&#x3e;" horiz-adv-x="215" 
d="M144 246q-2 -5 -5 -7q-32 -23 -68.5 -39t-67.5 -40q-4 -3 -8.5 -1.5t-6.5 5.5t-0.5 8t4.5 7q29 22 62 37t64 35q-18 23 -35 46.5t-34 47.5q-5 9 4 14.5t15 -3.5q34 -52 73 -99q2 -2 2 -3t1 -3v-5v0z" />
    <glyph glyph-name="question" unicode="?" horiz-adv-x="278" 
d="M281 589v-10.5t-1 -10.5q-6 -28 -22 -59q-13 -26 -26 -52.5t-27 -52.5q-29 -55 -58.5 -108.5t-58.5 -108.5q-26 -51 -52.5 -101.5t-52.5 -101.5q-3 -7 -6 -13t-5 -13q-2 -10 -11 -10q-9 -2 -11 7q-2 8 3 16q8 16 15.5 31.5t15.5 31.5q17 32 33 63.5t33 63.5
q20 37 39.5 73.5t39.5 73.5t39.5 73.5t39.5 73.5q12 23 23 46t19 46q3 8 4.5 16t3.5 16q3 25 -23 20q-11 -2 -21 -7t-20 -12q-26 -16 -48 -36.5t-42 -43.5q-3 -4 -6 -7.5t-5 -7.5q-2 -3 -2.5 -6.5t-1.5 -6.5q-2 -11 -10 -12q-10 -2 -11 7t5 20q5 11 12 20.5t15 18.5
q44 51 101 83q22 13 45 14q17 0 26 -9.5t9 -24.5zM-68 -126q5 0 7 -3.5t1 -8.5q-2 -11 -12 -11q-10 2 -8 12q2 11 12 11z" />
    <glyph glyph-name="at" unicode="@" horiz-adv-x="254" 
d="M105 249q-3 -4 -5.5 -6t-5.5 -5q-4 -4 -10 -8q-9 -5 -16.5 -1t-9.5 14q-3 15 2 29q3 11 8.5 21t16.5 18q9 9 21 7q8 -2 11 -11t-1 -16q-3 -6 -9 -5q-7 0 -7 6q-1 2 -1 5q-3 -1 -7 -6t-7 -11.5t-5 -14t-1 -13.5l3 3l3 3q3 3 6 7t7 8q2 2 4 3.5t4 3.5q6 5 13 2.5t7 -10.5
v-17q1 -3 1 -9q2 2 4.5 2t4.5 2q8 7 13.5 15t10.5 17q6 17 8.5 32.5t-1.5 32.5q-3 27 -30 33q-18 3 -38 -7q-19 -9 -32 -22.5t-24 -30.5q-14 -21 -23 -44.5t-13 -49.5q-2 -11 -3 -21t-2 -21q-1 -10 1.5 -19.5t6.5 -17.5q9 -20 31 -12q5 2 10.5 5t10.5 7q17 13 34.5 26.5
t31.5 30.5q8 7 15 17q1 2 4 5q7 7 13 1q7 -4 4 -12q-3 -5 -6 -9l-6 -8q-14 -16 -28.5 -29.5t-31.5 -26.5q-9 -6 -17 -12t-17 -11q-24 -13 -43.5 -5.5t-27.5 33.5q-8 18 -6 38q2 40 12 76.5t33 71.5q11 17 25 31.5t33 25.5q12 6 23.5 9.5t24.5 2.5q37 -3 53 -37q9 -24 5 -49
q-2 -16 -6.5 -30.5t-13.5 -28.5q-6 -8 -12 -14.5t-14 -11.5q-4 -4 -14 -6q-9 -2 -15.5 3t-8.5 15q-1 1 -1 6z" />
    <glyph glyph-name="A" unicode="A" horiz-adv-x="311" 
d="M383 717q2 -1 3.5 -2t3.5 -2q8 -8 4 -16q-4 -10 -8 -19t-9 -18q-14 -29 -27 -57.5t-26 -57.5q-26 -61 -48 -123t-41 -126l-2 -4q6 1 11.5 1.5t10.5 0.5q8 1 17 1.5t17 1.5q11 0 21 -10q7 -7 2 -14q-2 -3 -6 -4.5t-7 0.5q-7 4 -13 4t-12 -1q-11 -2 -22.5 -3t-23.5 -3
q-1 0 -4 -3q-11 -42 -22 -83.5t-22 -83.5q-8 -28 -13 -57l-10 -58q-2 -17 -3.5 -34t-0.5 -35q0 -8 2 -15.5t7 -14.5q7 -12 20 -7q12 6 19 16q11 11 18 24t15 27q2 5 5 10l6 10q3 7 12 5q7 -2 9 -9q0 -6 -1 -8q-9 -21 -20.5 -41t-26.5 -37q-13 -16 -33 -22q-13 -3 -25 3
t-20 20q-8 12 -10 24.5t-2 26.5q1 40 7.5 79t15.5 78q10 45 21.5 88.5t24.5 87.5q0 1 0.5 1.5t0.5 2.5q-5 -1 -9.5 -1.5t-9.5 -1.5q-29 -6 -56.5 -11.5t-56.5 -11.5q-2 0 -5 -3q-27 -45 -52 -89t-48 -92q-29 -60 -54 -125l-39 -96l-3 -15q-2 -9 -10 -9q-4 -1 -7.5 2t-3.5 7
q-2 6 0 13l15 42q9 24 18 48.5t19 47.5q31 78 69 149q15 27 30.5 54t30.5 54q1 1 1 1.5t1 1.5q-8 -2 -14.5 -4t-12.5 -4q-14 -5 -27.5 -10t-27.5 -10q-3 -1 -4 -4q-3 -8 -10 -8q-11 0 -14 8q-5 9 1 14q6 6 14 9q25 13 51.5 22t54.5 15q9 3 12 9q33 54 68 106t72 104
q67 96 138 189q8 11 17 21.5t19 21.5q3 4 7 6.5t8 5.5h3zM330 622v1q-65 -88 -127 -177t-122 -182q4 1 6.5 1t4.5 1q28 5 55.5 10.5t54.5 10.5q4 0 5 4q4 11 7 22.5t7 23.5l28 84t31 84q10 23 19.5 46t19.5 46l6 12t5 13z" />
    <glyph glyph-name="B" unicode="B" horiz-adv-x="456" 
d="M455 333q4 3 8 1.5t6.5 -5t2.5 -7.5t-4 -7q-17 -11 -34 -23t-34 -23q-1 0 -2 -1t-1.5 -2t-2.5 -2q-1 -1 -5 -3q-7 -5 -14 -11t-15 -11q-2 -2 -3 -2q-8 -6 -16.5 -12.5t-16.5 -12.5q-3 -2 -2 -5q7 -14 8 -28t0 -28q-2 -19 -6.5 -36.5t-10.5 -34.5q-9 -28 -21 -54t-26 -52
q-26 -47 -60.5 -86.5t-79.5 -69.5q-15 -11 -31 -19.5t-36 -13.5q-8 -2 -16 -2.5t-16 1.5q-32 8 -41 40q-4 17 -2 32t7 29q10 31 26 57.5t35 51.5q24 31 51 59t56 55q30 28 62.5 53.5t64.5 51.5l4 4q-5 3 -9 6t-9 5q-14 6 -28 9t-28 5t-28.5 3t-28.5 2q-1 0 -1.5 0.5
t-1.5 0.5q-12 2 -16.5 10.5t0.5 18.5q5 8 9.5 15.5t10.5 14.5l38 46t39 46q32 37 63.5 74t63.5 74q5 6 9 12l8 12q-1 -1 -1.5 -1t-1.5 -1q-23 -14 -43 -31t-40 -36q-63 -58 -118.5 -121t-105.5 -132q-25 -35 -47 -70.5t-41 -74.5q-5 -12 -10 -24.5t-10 -25.5q-1 -2 -1.5 -4
t-1.5 -4q-5 -7 -12 -4q-8 2 -10 10q0 6 1 9q11 38 22.5 77t23.5 78q8 26 16 51t16 51q11 32 22 64.5t23 64.5q15 39 30.5 78t31.5 78q13 30 27 58.5t30 57.5q4 10 15 7q11 -6 6 -16q-4 -8 -8 -15t-8 -15q-23 -49 -46 -101q-11 -27 -22 -54.5t-22 -54.5q-11 -28 -20.5 -56
t-19.5 -56q-8 -23 -15 -44.5t-14 -44.5l-24 -75v-2q2 0 2 2q51 81 110 153t127 138q24 24 49.5 47.5t53.5 43.5q9 6 18.5 12t19.5 12q4 2 8.5 3t9.5 2q8 1 12.5 -4.5t4.5 -12.5q-1 -8 -4 -13.5t-7 -10.5q-10 -13 -19.5 -25.5t-20.5 -25.5q-43 -51 -86 -101.5t-87 -101.5
q-8 -8 -14.5 -17.5t-13.5 -18.5q-1 -1 -3 -5q5 0 10.5 -0.5t10.5 -0.5q17 -1 34 -3t34 -7q15 -4 29 -10.5t26 -18.5q7 7 16 13q5 3 10 6.5t10 7.5q5 3 14 10t20 15q11 9 26 18q13 8 26 17t26 17zM307 172q0 6 -1 11.5t-2 12.5l-2 -1q-26 -20 -50.5 -40.5t-49.5 -40.5
q-35 -30 -67.5 -62.5t-61.5 -69.5q-18 -23 -33.5 -49t-26.5 -55q-4 -11 -5.5 -23t0.5 -25q5 -24 27 -24h8.5t8.5 2q15 3 28.5 10.5t26.5 15.5q28 18 52 41t44 49q33 42 56.5 88.5t38.5 98.5q5 15 7.5 30t1.5 31z" />
    <glyph glyph-name="C" unicode="C" horiz-adv-x="511" 
d="M525 315q-2 -2 -4 -5t-4 -5l-5 -5l-6 -6t-5 -6q-60 -66 -119.5 -131.5t-119.5 -131.5q-36 -40 -72.5 -78.5t-75.5 -75.5q-17 -16 -35 -31t-38 -28q-11 -7 -21.5 -12t-23.5 -7q-30 -3 -47 22q-14 21 -17 50q-2 7 -2 14t-1 15q0 3 -1 4v30q1 5 1 10.5t1 10.5
q5 68 18.5 133.5t33.5 130.5q22 70 53 139q23 51 50 98.5t61 92.5q26 34 55 64t63 56q23 18 48 32t52 23q16 5 31 6.5t32 -1.5q23 -5 37 -20.5t16 -38.5q3 -27 -8 -55q-14 -40 -34 -76t-49 -68l-15 -15q-8 -7 -14 1q-7 8 0 15q16 14 28 31.5t23 35.5q24 38 39 83q8 21 8 41
q-1 19 -12 30.5t-29 13.5q-16 2 -30.5 -1.5t-28.5 -8.5q-26 -11 -49 -25.5t-45 -31.5q-30 -25 -56 -53t-49 -59q-47 -64 -82 -136q-20 -38 -36 -78t-30 -81q-13 -40 -23.5 -79.5t-18.5 -81.5q-5 -24 -8 -48t-6 -49q-2 -21 -3 -42t1 -43q1 -13 3.5 -25.5t8.5 -24.5
q3 -6 7.5 -11t12.5 -6q4 -1 8 -0.5t9 1.5q10 3 18 8l16 10q20 14 37 29t34 32q42 40 81 82t78 85l237 261q1 1 1.5 2t1.5 2t2 1l3 3q4 2 6 2h1q2 0 3.5 -1t3.5 -2q2 -3 4 -9q0 -1 -0.5 -3t-3.5 -5z" />
    <glyph glyph-name="D" unicode="D" horiz-adv-x="497" 
d="M509 327q3 -9 -8 -13q-47 -19 -93 -37.5t-92 -38.5q-7 -14 -9 -19q-18 -35 -37 -70t-39 -68q-31 -52 -68 -98.5t-82 -87.5q-17 -15 -34.5 -29t-37.5 -25q-16 -9 -32.5 -15.5t-34.5 -8.5q-18 -3 -33 2q-26 7 -35 33q0 2 -0.5 2.5t-0.5 1.5l-2 8q1 5 1 11t1 12
q2 17 7.5 31.5t12.5 28.5q23 47 55 85.5t71 71.5q26 23 54.5 41.5t59.5 35.5q36 21 74 38t78 32q7 3 12 7t8 12q13 28 25 56.5t23 57.5q9 27 16.5 55t11.5 57l2 22t-1 23q-1 5 -2 9t-3 9q-6 14 -24 12q-17 -3 -31 -10q-19 -11 -35 -23.5t-32 -26.5q-61 -57 -113 -120
t-98 -133q-40 -61 -68 -128q-4 -10 -6 -14q-3 -5 -11 -3q-7 2 -9 9q0 6 1 8q9 29 18 56.5t18 56.5q9 28 17.5 56t17.5 56q10 29 20 59t21 59q11 31 21 61.5t21 60.5l24 72q2 4 3 7.5t-1 8.5t1.5 8t7.5 3q10 0 12 -10q1 -7 -1 -17q-4 -21 -11 -42l-26 -76l-26 -76
q-12 -33 -23.5 -66.5t-22.5 -66.5l-12 -38l-12 -38v-1q0 -1 -0.5 -1t-0.5 -1q7 11 13 20.5t13 18.5q40 58 84 111.5t95 102.5q17 17 35.5 32t39.5 28q11 6 22 11t24 7q13 3 25 -1q26 -9 34 -39q3 -14 3 -28t-1 -28q-3 -27 -9.5 -53t-14.5 -51q-8 -26 -18 -51t-21 -50
l-12 -24q42 17 83.5 33.5t83.5 33.5q4 2 8 -0.5t5 -6.5zM274 208q2 4 4.5 8t4.5 9q-2 0 -2.5 -0.5t-1.5 -0.5q-44 -17 -85.5 -37t-80.5 -45q-38 -23 -72.5 -51t-63.5 -63q-23 -26 -41 -54.5t-32 -60.5q-5 -11 -7.5 -22.5t-2.5 -24.5q0 -22 20 -27q3 0 5.5 -0.5t4.5 -0.5
q19 0 40 8q24 9 44.5 22.5t39.5 29.5q87 75 151 176q39 63 75 134z" />
    <glyph glyph-name="E" unicode="E" horiz-adv-x="388" 
d="M409 666q2 -1 4 -1.5t4 -2.5q4 -2 5 -6.5t-2 -9.5q-3 -8 -13 -4q-4 2 -8 1q-23 -5 -46.5 -10.5t-46.5 -11.5q-15 -4 -29.5 -8t-29.5 -8q-1 -1 -2 -1.5t-2 -2.5q-27 -51 -53 -103q-11 -21 -21 -42t-21 -43l-42 -90q-9 -21 -18 -42.5t-19 -42.5q-2 -5 -4 -10.5t-5 -10.5
q2 0 3 0.5t3 0.5q39 14 78 27.5t78 26.5q14 5 27 8.5t26 7.5q3 1 8 1q10 0 12 -10q0 -9 -10 -12q-10 -2 -19.5 -4.5t-19.5 -5.5q-28 -9 -55.5 -18.5t-56.5 -19.5l-40 -14t-40 -15q-5 -1 -7 -6q-12 -31 -23 -61t-21 -61q-8 -26 -14.5 -52t-9.5 -53q-2 -16 -2.5 -31t2.5 -30
q1 -7 5 -14q8 -11 18 -8q9 3 17.5 6t16.5 7q54 26 103.5 58.5t97.5 67.5q14 11 29.5 21.5t30.5 21.5q4 2 8 2q7 0 8 -7q3 -5 -3 -11q-4 -3 -7.5 -5.5t-7.5 -5.5q-28 -20 -56 -40.5t-57 -40.5t-58.5 -38t-60.5 -35q-13 -6 -25.5 -12t-26.5 -10q-22 -6 -38 8q-12 12 -15 30
q-3 14 -3.5 26.5t0.5 26.5q3 35 11.5 68.5t19.5 66.5q8 24 16.5 47.5t16.5 46.5q1 1 1 2t1 3q-1 0 -1.5 -0.5t-1.5 -0.5q-16 -6 -32 -12.5t-33 -12.5q-5 -3 -9 -3q-8 -3 -12 5q-2 9 5 13l9 3l42 18t42 17q3 3 3 4q11 23 20.5 47t20.5 48q13 29 25.5 57.5t26.5 57.5l32 64
l32 64l12 22l12 22l1.5 3l1.5 3q-10 -3 -19.5 -5.5t-18.5 -5.5l-58 -18l-58 -18q-10 -3 -13 6q-4 10 7 13l18 6t17 7q35 12 69 22t69 19q2 1 4 3q7 7 13 3q4 0 5 1q27 7 54 13.5t54 14.5q10 2 19.5 4t19.5 4h1h9z" />
    <glyph glyph-name="F" unicode="F" horiz-adv-x="605" 
d="M900 699q5 -9 -2 -14q-7 -7 -15 -1q-3 3 -10 3q-13 -2 -25.5 -3.5t-24.5 -3.5l-207 -39q-39 -8 -78.5 -16t-79.5 -16l-48 -10l-48 -10q-5 -2 -6 -6l-22 -64t-22 -65q-12 -35 -23.5 -70.5t-23.5 -70.5q-4 -13 -8 -25.5t-8 -26.5q-3 -9 -5.5 -18t-5.5 -17q0 -3 -1 -4l-2 -7
q148 48 300 90q5 1 8.5 -1.5t4.5 -6t-1 -7.5t-7 -5l-42 -12t-43 -13q-38 -11 -75 -22t-74 -23q-20 -6 -39.5 -12.5t-39.5 -12.5v-1l-1 -2q-10 -35 -20 -69.5t-21 -69.5t-21 -69.5t-21 -69.5q-8 -29 -17 -57t-17 -57q-3 -10 -13 -10q-11 2 -11 11q-1 2 1 8q11 37 22.5 74
t22.5 74q11 39 22.5 77.5t23.5 77.5q5 19 11 37.5t11 37.5q-5 -2 -9 -2.5t-8 -2.5q-42 -14 -82 -28t-80 -30l-12 -4l-12 -4q-10 -3 -14 6q-4 10 7 14q34 14 68.5 28t69.5 26l38 12t38 13q5 1 7 6l24 80t26 80q17 51 34 100.5t34 100.5q0 2 1 4l-27 -6q-42 -9 -84 -19
t-84 -23q-32 -9 -64 -19l-64 -20q-6 -2 -10 -3q-11 -4 -14 7q-4 10 7 13q13 5 25.5 9.5t26.5 9.5q52 18 104.5 32t106.5 27q20 5 41 9t41 9q4 1 7 6l33 99q2 8 3 11q2 13 13 9q11 -2 9 -13t-5 -20.5t-6 -19.5l-10 -30l-10 -30q0 -2 -1 -4q7 2 13.5 3t12.5 2q60 13 119 25
t119 24l156 30l36 6t37 5q5 2 11 1.5t12 -0.5q11 -2 17 -12z" />
    <glyph glyph-name="G" unicode="G" horiz-adv-x="450" 
d="M408 314q4 2 8 0.5t6 -5t1.5 -7.5t-5.5 -7q-17 -8 -33 -17.5t-33 -20.5q-4 -10 -7 -18.5t-5 -13.5q-5 -13 -10.5 -26t-11.5 -27q-29 -66 -66 -129q-23 -40 -52.5 -75.5t-66.5 -64.5q-20 -17 -42 -30.5t-47 -21.5q-28 -10 -50 -3q-36 9 -45 45q-2 5 -2.5 11t-1.5 11
q0 4 -1 5l1 4q0 5 0.5 9t1.5 9q5 23 14.5 42.5t23.5 37.5q42 55 101 93q35 23 71 45.5t72 45.5q26 16 51.5 32t51.5 33q4 2 4 5q6 18 11.5 35.5t11.5 34.5l2 10l2 10l-2 -2q-23 -16 -45 -31.5t-44 -32.5q-28 -20 -54.5 -41t-53.5 -41q-14 -11 -28 -19.5t-31 -13.5
q-22 -8 -42 1q-14 6 -23 16.5t-14 24.5q-6 14 -8 29t-2 30q1 28 7 54.5t15 52.5q26 80 72 148q23 36 52 67t64 56q20 14 42 24.5t47 15.5q6 2 11.5 2.5t11.5 1.5h15q5 -1 10 -1.5t10 -2.5q36 -9 54 -44q8 -14 11 -28t4 -29q1 -26 -3 -50.5t-12 -48.5q-2 -6 -5 -11.5
t-6 -11.5q-5 -9 -13 -5q-10 4 -4 13q12 26 15.5 52t5.5 53q0 15 -2.5 29.5t-10.5 28.5q-19 32 -58 34q-19 1 -36.5 -4t-34.5 -13q-38 -18 -68 -45t-56 -59q-16 -20 -29.5 -41t-25.5 -43q-16 -30 -28.5 -60.5t-20.5 -62.5q-5 -19 -8.5 -38t-3.5 -39q0 -15 3 -29t11 -27
q10 -18 27 -21q8 -2 14.5 0t13.5 5q22 10 44 27q29 22 58 43.5t58 43.5q22 17 43.5 32t44.5 31q6 4 10 6q8 3 14.5 -0.5t6.5 -12.5q0 -13 -3 -23q-2 -11 -5.5 -22t-6.5 -22q-1 -3 -2 -7q-1 -3 -2.5 -7t-3.5 -9q11 6 22.5 12.5t22.5 12.5zM294 171q8 17 14.5 33t13.5 33l-1 1
l-2 -2q-13 -8 -26 -16.5t-26 -16.5l-78 -48t-77 -49q-28 -17 -52.5 -37.5t-45.5 -45.5q-14 -16 -24.5 -32t-16.5 -35q-9 -30 -4 -56q5 -17 17.5 -25.5t29.5 -7.5q18 1 37 11q22 10 41.5 23t37.5 29q38 32 66.5 71t51.5 82q12 22 22.5 44t21.5 44z" />
    <glyph glyph-name="H" unicode="H" horiz-adv-x="467" 
d="M201 -244q-12 5 -9 20q2 11 4.5 23t5.5 24q5 22 11 43t12 43q6 23 12.5 45t12.5 45t12.5 45.5t13.5 45.5q6 23 12.5 44.5t13.5 44.5l30 102q1 4 2 7.5t3 8.5q-2 -1 -5 -1q-49 -19 -97 -37t-97 -36l-6 -3q-5 -1 -7.5 -4t-4.5 -8q-15 -43 -32 -84t-40 -82
q-12 -23 -26.5 -45t-31.5 -42q-17 -19 -35.5 -35t-41.5 -27q-20 -10 -41 -15.5t-43 -4.5q-39 3 -60 35q-23 34 -15 78q3 20 12 37.5t22 34.5q17 20 37 35.5t42 29.5q28 17 56.5 31.5t58.5 27.5t60 25l60 24q3 1 5 6q10 29 19.5 58t17.5 58q9 29 17.5 57t16.5 57l12 44l12 44
q8 30 16.5 60t17.5 60q2 8 4 14.5t4 13.5q2 10 12 10q11 0 8 -12q-2 -6 -3.5 -12.5t-3.5 -12.5q-4 -16 -8 -31.5t-9 -31.5q-5 -18 -9.5 -36t-9.5 -36q-5 -19 -10.5 -38t-10.5 -38q-5 -17 -10 -35t-10 -35l-14 -48t-15 -48q-4 -13 -8 -25.5t-9 -25.5q0 -3 -1 -5q16 7 35 13
q43 17 85.5 32.5t86.5 32.5q4 1 6 6q13 38 25 76t25 76q14 41 27.5 81t27.5 81q8 20 15 40t15 40q1 3 5 9q5 8 13 5q9 -2 5 -11q-12 -35 -24 -68.5t-24 -68.5l-51 -150q-8 -26 -16.5 -50.5t-16.5 -49.5q0 -2 -1 -4q2 1 2.5 1t2.5 1q26 9 50.5 18t50.5 18q2 1 3 1t3 1
q7 0 11 -7q2 -7 -5 -12q-2 -2 -3.5 -2.5t-3.5 -1.5q-29 -11 -57.5 -20.5t-57.5 -20.5q-3 -1 -5 -6q-12 -39 -23.5 -78t-23.5 -79l-20 -70l-20 -70l-36 -132l-21 -78q-1 -5 -1.5 -9.5t-1.5 -9.5q-1 -1 -1 -4q2 -8 0 -11t-10 -6h-3zM97 206l-6 -2q-24 -10 -47.5 -19t-47.5 -20
q-28 -12 -55.5 -25.5t-53.5 -29.5q-23 -13 -43.5 -28.5t-37.5 -35.5q-11 -13 -18.5 -27t-10.5 -30q-7 -37 12 -68q18 -27 53 -26q15 1 30 5t29 11q21 10 38.5 24.5t32.5 31.5q16 18 29 38.5t25 41.5q17 31 31.5 63t27.5 65q3 8 5.5 15.5t6.5 15.5z" />
    <glyph glyph-name="I" unicode="I" horiz-adv-x="165" 
d="M166 682q-6 -1 -12.5 -1.5t-12.5 -1.5q-17 -2 -35 -4l-36 -4q-2 -1 -4.5 -1t-4.5 -1q-10 -2 -12 8t8 13q5 2 11 2.5t12 1.5q23 3 45 6t45 7h4q-4 9 1 14q2 2 4.5 3.5t4.5 1.5q10 1 12 -16q6 1 11.5 1t11.5 1l39 3q10 0 14 -7q6 -8 0 -14q-4 -6 -13 -4q-7 1 -14 0
q-12 -1 -25 -2t-25 -3q-4 0 -5 -3q-9 -37 -20.5 -72.5t-22.5 -71.5q-29 -95 -59 -189t-60 -190q-16 -50 -31.5 -99.5t-31.5 -99.5q-10 -29 -20 -56.5t-20 -55.5q-1 0 -1 -2q8 2 12 4q5 1 10.5 2t10.5 3h7q9 0 9 -9q2 -9 -7 -13q-5 -2 -10 -2.5t-10 -2.5q-22 -8 -44 -16.5
t-44 -16.5q-6 -2 -10 -3q-10 -4 -12 6q-3 9 6 14q5 2 10.5 4t10.5 4q16 8 31 14q2 4 2.5 7.5t2.5 7.5q8 22 16.5 43.5t16.5 43.5q14 42 27 83.5t27 83.5q23 71 44 141t44 141q16 52 32.5 103.5t32.5 103.5l27 87v3z" />
    <glyph glyph-name="J" unicode="J" horiz-adv-x="403" 
d="M349 280q4 -8 1 -12.5t-6 -6.5q-17 -8 -32.5 -16.5t-32.5 -16.5q-6 -3 -7 -8q-23 -56 -48 -110.5t-55 -106.5q-20 -34 -41 -66.5t-46 -62.5q-14 -17 -29.5 -31t-34.5 -25q-26 -16 -53 -16q-24 -1 -42.5 11t-27.5 37q-8 21 -7 42t7 41q8 27 21.5 49.5t30.5 43.5
q25 29 52.5 53.5t58.5 47.5q32 23 65 43t68 39q16 8 31 16l30 16l4 4q14 38 28.5 77t26.5 79q11 35 20 70t17 71q3 17 6 34.5t2 34.5q0 8 -1 15.5t-3 15.5q-6 23 -31 25q-26 0 -50 -9q-78 -25 -142 -80q-8 -6 -14 -13.5t-13 -15.5q-2 -3 -3.5 -6.5t-3.5 -6.5q-5 -10 -13 -7
q-11 4 -8 14q2 5 4 8.5t4 8.5q20 30 52 54q29 21 59.5 38t65.5 28q14 5 29 8.5t31 2.5q15 -1 28 -7t21 -20q5 -8 7.5 -17t4.5 -18q2 -21 0 -40.5t-6 -39.5q-8 -40 -17.5 -79t-22.5 -77q-11 -32 -22.5 -64.5t-22.5 -64.5q0 -1 -0.5 -1.5t-0.5 -2.5q4 2 7.5 4t7.5 4l16 8l16 8
q2 1 6.5 1t7.5 -5zM226 174q4 8 7 16.5t7 16.5l-4 -2q-11 -5 -21 -11t-21 -12q-32 -17 -63.5 -35.5t-60.5 -40.5t-55.5 -45.5t-49.5 -51.5q-17 -20 -29.5 -41t-18.5 -47q-8 -29 -2 -56q5 -22 18.5 -31.5t33.5 -7.5q11 1 21.5 5t20.5 10q16 10 29 22.5t25 26.5q37 45 66 93.5
t55 100.5q11 23 21 45t21 45z" />
    <glyph glyph-name="K" unicode="K" horiz-adv-x="335" 
d="M-108 -88q7 22 13.5 44t14.5 44q8 30 17.5 59.5t18.5 59.5q0 1 0.5 2t-0.5 3q-1 -2 -1.5 -3.5t-1.5 -3.5q-3 -10 -13 -6q-4 2 -6 5.5t0 7.5q3 8 6.5 15.5t7.5 15.5q6 10 12 19t12 19q1 2 1 6q0 9 8 12q3 0 5 5q12 41 24.5 81t25.5 81q11 38 23 75t24 75q11 34 23 67.5
t23 67.5q5 14 9 26.5t9 25.5q1 2 1 4t1 4q3 9 12 7q10 -2 8 -11q-1 -13 -6 -25q-11 -33 -22.5 -66.5t-22.5 -66.5q-16 -50 -31.5 -99t-31.5 -100q-8 -23 -14.5 -47t-14.5 -47q0 -1 -0.5 -1.5t-0.5 -2.5l2 2q25 29 51 56t52 53q42 43 84.5 84.5t85.5 83.5q20 20 41.5 39
t42.5 38q3 2 5.5 4.5t5.5 4.5q6 5 14 3q7 -3 8 -9q0 -7 -4 -10q-23 -17 -43.5 -36t-40.5 -39q-62 -58 -121.5 -118t-119.5 -121q-21 -23 -41 -46t-39 -48q-1 -1 -1 -2t-2 -2q2 -2 4 -3.5t4 -3.5q16 -16 30.5 -31t30.5 -30q31 -29 61.5 -56.5t60.5 -56.5q93 -83 181 -166
q9 -8 18 -17.5t17 -19.5q3 -3 5.5 -7.5t4.5 -8.5q3 -10 -4 -14t-14 3q-22 31 -49.5 55.5t-54.5 49.5q-54 50 -108 98.5t-108 98.5q-20 19 -39 39t-39 40q-2 2 -3.5 4t-3.5 4q-6 -14 -9 -29q-10 -31 -19.5 -62t-18.5 -63l-18 -56t-18 -57q0 -1 -2 -7q-3 -6 -10 -6q-8 0 -11 8
v2q0 1 -0.5 1.5t-0.5 1.5z" />
    <glyph glyph-name="L" unicode="L" horiz-adv-x="187" 
d="M-83 -141q8 4 16 7t16 7q50 23 102 39.5t106 28.5q34 8 67.5 14t68.5 11l40 4l40 4q27 2 54.5 3t55.5 3q24 1 48 1h49q10 0 22 -3q7 -2 13 -6q7 -7 3 -15q-4 -7 -11 -4h-2q-4 5 -8.5 5h-9.5h-55t-54 -1q-18 -1 -36 -1.5t-36 -2.5q-30 -2 -59.5 -4t-59.5 -7
q-117 -17 -226 -51q-60 -19 -118 -47l-12 -4l-12 -4q-11 -3 -18.5 3.5t-6.5 17.5t2 20.5t4 19.5q6 26 12.5 51t13.5 51q6 23 13 45t13 45l16 50l16 50q6 21 12.5 42t13.5 42q7 23 14 46.5t15 46.5q8 25 16 49l16 48q15 45 31 87.5t36 84.5q5 8 9 16.5t8 16.5q2 3 3.5 5.5
t3.5 4.5q4 6 14 1q8 -3 6 -12q0 -11 -8 -12q1 0 -2 -3q-17 -36 -32.5 -72.5t-28.5 -74.5t-25.5 -74.5t-24.5 -73.5q-10 -31 -19.5 -61.5t-19.5 -60.5q-9 -30 -18 -59.5t-18 -58.5l-33 -111q-9 -30 -17.5 -60.5t-15.5 -62.5q-1 -5 -1.5 -11t-2.5 -13h1z" />
    <glyph glyph-name="M" unicode="M" horiz-adv-x="457" 
d="M474 676q-5 -5 -10 -10.5t-11 -11.5q-54 -63 -105 -128t-97 -134q-19 -29 -37 -59t-38 -59l-24 -36q-2 -2 -5 -4.5t-5 -4.5q-7 -5 -14.5 -2t-9.5 11q-2 4 -3 7.5t0 8.5q1 18 1.5 36t2.5 36q2 19 3.5 37.5t3.5 37.5q3 21 5 42l4 42l6 46l6 46q0 8 0.5 16.5t0.5 16.5
q-1 -4 -3.5 -8t-4.5 -9q-17 -39 -33.5 -77.5t-33.5 -78.5q-19 -46 -37.5 -91.5t-35.5 -91.5q-24 -63 -44 -126t-39 -128q-2 -14 -5.5 -27.5t-7.5 -27.5q-1 -2 -0.5 -4.5t0.5 -4.5q-5 -9 -13 -9q-4 1 -7 3.5t-1 7.5q1 7 1 13.5t2 12.5q8 38 18.5 75.5t21.5 74.5
q16 50 33.5 98.5t37.5 96.5q18 51 39 100.5t42 100.5q12 26 23 53t23 53q4 8 9 15.5t10 15.5q2 4 10 10q11 4 17 -7q4 -8 4 -14q-1 -11 -0.5 -22.5t-1.5 -22.5q-3 -35 -9 -72l-4 -36t-4 -35q-2 -16 -3 -31.5t-2 -31.5q-3 -14 -4.5 -29t-2.5 -29q-1 -16 -2 -31.5t-2 -31.5v-3
q5 7 8.5 13t7.5 12q27 42 53.5 84t55.5 82q26 35 51 69.5t53 67.5q40 51 86 101q5 6 11.5 11t11.5 10q4 4 9 4q9 2 14.5 -4t3.5 -16q-2 -15 -7 -26q-6 -20 -12.5 -40t-13.5 -40q-16 -45 -30.5 -89.5t-25.5 -90.5q-13 -51 -26 -100.5t-26 -100.5q-13 -57 -25 -114.5
t-26 -114.5q-9 -38 -17.5 -77t-16.5 -77q-2 -11 -3.5 -21t-3.5 -20q0 -9 -10 -11q-9 -2 -13 8q1 5 1 10v10q5 23 9.5 47t10.5 47q14 63 27.5 125t27.5 125q17 73 34.5 145.5t37.5 144.5q15 49 30.5 97.5t32.5 96.5q5 11 8.5 22t7.5 22v3h-1z" />
    <glyph glyph-name="N" unicode="N" horiz-adv-x="332" 
d="M355 665l-10.5 -10.5t-10.5 -11.5q-23 -25 -44.5 -51t-41.5 -53q-38 -48 -74.5 -96.5t-71.5 -98.5q-31 -44 -58.5 -88.5t-52.5 -89.5q-4 -8 -7.5 -15.5t-8.5 -15.5q-2 -3 -4.5 -6.5t-5.5 -5.5q-6 -8 -14 -4q-8 2 -5 10q6 25 15 51q17 49 33.5 97.5t34.5 97.5
q17 48 35 94.5t36 93.5q9 23 17.5 44.5t17.5 44.5q2 4 2.5 8t2.5 9q1 2 1 3t1 2q4 9 13 10q9 0 8 -7q0 -4 -2 -14q-10 -30 -21.5 -60.5t-23.5 -61.5l-78 -207q-9 -24 -17.5 -48.5t-16.5 -48.5q-1 -2 -1 -7q5 10 11 19q30 49 63 96t68 94q30 40 61 79.5t63 79.5q14 19 29 36
t32 34q5 5 11 10l12 10l2 2q13 8 22 5t7 -16q-1 -14 -8 -29q-10 -26 -19.5 -50.5t-19.5 -49.5q-22 -56 -41.5 -111.5t-36.5 -111.5q-14 -42 -25.5 -83.5t-22.5 -83.5q-8 -29 -14 -58.5t-9 -58.5q-3 -25 -6 -49.5t-5 -49.5q-2 -20 -2.5 -40t-1.5 -40q0 -6 0.5 -11.5
t0.5 -10.5q10 4 13 5q9 1 9 -7q1 -9 -7.5 -19t-19.5 -12q-9 -3 -14 4q-4 5 -5 11.5t-2 14.5q-2 23 -1 46t3 47q2 17 3.5 34.5t3.5 34.5q5 37 11 73.5t16 74.5q33 130 78 261q17 51 36 100.5t39 100.5q5 13 9.5 25.5t9.5 25.5v2q0 1 -1 1z" />
    <glyph glyph-name="O" unicode="O" horiz-adv-x="465" 
d="M-45 51q1 31 4.5 61t8.5 61q6 32 13.5 63t17.5 62q11 33 23 65t27 64q12 26 26 52t31 51q20 30 43 57t51 50q17 14 36 25.5t40 19.5q13 5 25.5 7.5t26.5 1.5q17 -2 31.5 -8.5t25.5 -20.5q2 -2 4 -6q3 -9 -4 -14q-8 -5 -14 3q-3 3 -5.5 6.5t-6.5 6.5q-16 12 -41 10
q-22 -2 -41 -10.5t-38 -20.5q-26 -17 -48 -38.5t-42 -47.5q-23 -29 -41 -60t-34 -64q-24 -51 -42 -104t-31 -108q-12 -51 -18 -102q-3 -24 -4.5 -48t-0.5 -48q0 -24 3 -48t11 -47q8 -25 23 -41q13 -14 28.5 -19.5t34.5 -4.5q23 2 41 11.5t35 24.5q21 20 38.5 41.5t33.5 44.5
q20 28 36.5 58t30.5 61q38 81 66 163q16 44 28.5 88t21.5 90q3 15 4.5 31t3.5 32q3 26 -3 52q-2 5 -3.5 9t-3.5 9q-8 12 -23 9q-8 -2 -14.5 -5.5t-12.5 -7.5q-18 -14 -33 -29.5t-29 -32.5q-28 -35 -51.5 -73t-45.5 -78q-14 -26 -29 -53t-29 -54q-11 -22 -22.5 -44t-22.5 -45
q-8 -15 -14 -30.5t-13 -31.5q-2 -5 -3 -9t-2 -9q-1 -3 1 -5q6 -7 2 -14q-3 -6 -12 -6q-16 3 -16 19q0 9 2.5 17.5t6.5 16.5l22 48l22 48q12 24 24.5 48t25.5 48q23 43 46 85t50 82q18 26 37 50.5t42 46.5q18 20 41 32q8 4 15.5 7t16.5 3q29 2 43 -29q7 -19 9 -41
q2 -27 -1.5 -53.5t-8.5 -52.5q-10 -45 -22.5 -89t-27.5 -88q-14 -41 -30.5 -80.5t-34.5 -79.5t-39.5 -78t-48.5 -73q-15 -19 -30.5 -36.5t-33.5 -33.5q-16 -14 -34 -23.5t-38 -12.5q-35 -5 -64.5 7.5t-47.5 46.5q-9 17 -14 35t-8 38q-6 45 -3 89z" />
    <glyph glyph-name="P" unicode="P" horiz-adv-x="497" 
d="M38 119q-4 -11 -7 -21t-6 -21l-18 -58t-17 -58q-9 -31 -17.5 -62t-17.5 -63q-1 -4 -1 -8t2 -9q4 -7 -3 -13q-7 -5 -14 1q-10 6 -8 17q1 9 2 17.5t3 16.5q13 46 26 91l26 90q6 20 12.5 40t12.5 40q0 1 0.5 1.5t0.5 1.5l-24 9q-10 4 -18.5 9.5t-15.5 13.5q-18 22 -11 47
q5 21 17.5 36.5t30.5 26.5q2 1 3.5 2t3.5 2q10 3 15 -5t-4 -15q-13 -8 -23 -18q-8 -8 -13.5 -17t-7.5 -20q-3 -12 6 -24q8 -9 17 -13t20 -8q6 -2 11 -2l1 1q11 35 22 69l22 68q15 47 30 93t31 93q11 32 22 64.5t22 64.5q3 7 5.5 14t5.5 14q3 6 8 11q7 7 14 1q7 -5 4 -12
q0 -1 -0.5 -1.5t-0.5 -1.5q-5 -3 -6.5 -8t-3.5 -10q-17 -51 -33.5 -101t-33.5 -101q-11 -30 -20.5 -60.5t-19.5 -60.5q-9 -29 -18.5 -57.5t-18.5 -57.5q-2 -6 -4 -12.5t-4 -13.5q4 0 7 -0.5t6 -0.5q24 -1 48 0t48 6q23 4 47 17q109 57 181 157q20 29 36 59t27 64q6 23 9 45
t0 45q-9 78 -73 119q-29 17 -64 22q-38 4 -73.5 -3t-70.5 -24q-56 -27 -93 -72q-5 -5 -8.5 -11.5t-7.5 -12.5q-2 -3 -2 -10q0 -8 -6 -11t-11 2q-6 6 -5 15q2 9 5.5 16.5t8.5 14.5q14 21 31.5 37.5t37.5 30.5q29 19 59.5 31.5t65.5 17.5q32 5 63.5 3t61.5 -16q49 -21 76 -66
q30 -46 30 -105q0 -30 -7 -58t-18 -55q-47 -108 -138 -185q-46 -42 -99 -68q-21 -11 -43.5 -18t-46.5 -9q-19 -2 -37.5 -2.5t-37.5 1.5q-4 0 -7 0.5t-7 0.5z" />
    <glyph glyph-name="Q" unicode="Q" horiz-adv-x="430" 
d="M80 -56q10 -5 19 -8.5t18 -8.5q20 -9 40 -15t41 -11q17 -5 34.5 -9t34.5 -7q17 -4 34 -6.5t34 -2.5q7 0 10 4q4 8 11 4q8 -3 8 -11q-2 -14 -14 -19q-11 -4 -27 -2q-19 3 -37.5 5.5t-36.5 6.5q-22 5 -43.5 10.5t-42.5 10.5q-26 7 -49.5 17.5t-46.5 22.5q-10 4 -18 -1
q-14 -8 -29 -15t-32 -9q-19 -4 -33 4q-11 5 -14.5 16.5t4.5 22.5q10 16 32 24q14 6 29 5t29 -6l8 -4l8 -4q5 -1 9 1q48 32 84 70q47 50 87 110q37 54 69 114q25 47 46 95.5t36 99.5q9 30 14.5 60t6.5 62q1 20 -2.5 39t-14.5 36q-27 43 -76 43q-22 0 -41 -7t-38 -18
q-33 -20 -59 -47.5t-47 -60.5q-18 -29 -32 -58.5t-26 -61.5q-25 -63 -39 -125q-5 -20 -8 -39t-6 -39q-2 -15 -3 -29.5t-2 -29.5t-0.5 -30t4.5 -30q3 -12 9 -24q4 -9 -2 -15q-9 -6 -15 3q-6 10 -11 24q-9 32 -8 62q0 45 7 88t18 86q24 94 66 179q16 33 35.5 63t45.5 56
q20 20 42.5 36.5t48.5 27.5q19 8 39 11.5t40 0.5q58 -10 84 -67q8 -16 11 -33t3 -34q1 -34 -5.5 -66.5t-15.5 -64.5q-13 -46 -31 -89.5t-39 -85.5t-44.5 -81.5t-49.5 -77.5q-27 -38 -57 -73.5t-65 -64.5q-8 -7 -17 -13.5t-18 -13.5q-2 -2 -4 -3zM31 -59q-28 13 -50 2
q-8 -4 -16 -12q-4 -4 2 -7q3 0 6.5 -0.5t6.5 -0.5q9 1 17.5 3.5t16.5 6.5q5 2 8.5 4t8.5 4z" />
    <glyph glyph-name="R" unicode="R" horiz-adv-x="366" 
d="M28 185q-2 -9 -5 -18.5t-6 -19.5q-14 -45 -27 -88.5t-26 -88.5q-12 -40 -23 -79.5t-22 -79.5q-2 -5 -2.5 -9t-1.5 -9q-2 -5 0 -9q2 -12 -8 -14q-9 -4 -14 6q-3 7 -2.5 13.5t2.5 13.5q8 30 16 59.5t16 59.5l66 219q18 60 36.5 120t37.5 120q20 61 39.5 121t41.5 120
q2 5 4.5 11t4.5 12q-3 0 -7 -2q-36 -11 -68.5 -29t-60.5 -44q-5 -5 -9.5 -10t-8.5 -10q-3 -4 -7 -12q-2 -10 -10 -10q-10 2 -10 10q-1 7 4 16q9 13 21 27q17 19 37.5 33.5t43.5 25.5q20 11 40.5 18.5t41.5 13.5q2 0 5 3q4 12 8 23.5t8 23.5q1 2 1.5 3.5t2.5 3.5q2 6 10 6
q7 -2 9 -9q2 -9 -3 -15q-1 0 -1 -2q-3 -8 -5.5 -15.5t-4.5 -15.5q5 1 9.5 1.5t9.5 0.5q31 2 59.5 -3t54.5 -22q52 -33 47 -95q-2 -20 -8 -39t-16 -37q-19 -35 -44 -64.5t-53 -55.5q-25 -23 -51 -44.5t-52 -42.5q-20 -16 -38.5 -31t-37.5 -31q-8 -6 -14 -14q-8 -9 -3 -21
q5 -9 10.5 -17.5t12.5 -16.5q19 -21 39 -40.5t40 -39.5q63 -59 125 -117t125 -117q6 -5 12.5 -11t12.5 -11q6 -4 4 -12q-3 -8 -11 -8q-7 0 -13 6q-18 15 -35 32q-58 54 -115.5 108t-114.5 108q-20 19 -40.5 38.5t-38.5 40.5q-8 9 -16.5 19t-14.5 21q-2 5 -4.5 11t-4.5 11z
M37 213l9.5 9.5t9.5 8.5q15 13 30 25.5t31 24.5q30 24 59.5 48.5t57.5 50.5q24 23 46 47t39 53q11 18 19 37.5t10 41.5q3 34 -15 56q-11 15 -26 23.5t-33 13.5q-22 6 -44 5.5t-44 -4.5q-3 0 -5 -5q-5 -13 -9.5 -26t-9.5 -27q-15 -43 -29.5 -85.5t-28.5 -85.5
q-14 -41 -26.5 -81.5t-25.5 -82.5q-4 -11 -7.5 -23t-7.5 -24z" />
    <glyph glyph-name="S" unicode="S" horiz-adv-x="527" 
d="M532 310l-3 -3t-3 -2t-3 -2l-6 -5l-1 -1l-2 -2h-1q-54 -45 -108.5 -86.5t-110.5 -83.5l1 -1q2 -4 3.5 -19.5t-12.5 -42.5q-7 -13 -15 -25.5t-16 -24.5q-35 -50 -74.5 -94.5t-86.5 -84.5q-20 -17 -40.5 -32.5t-43.5 -27.5q-11 -6 -21.5 -10t-23.5 -6q-17 -2 -27.5 8
t-8.5 27q0 7 2 13.5t4 12.5q7 17 17 32.5t22 29.5q19 23 40.5 43.5t44.5 40.5q45 38 89.5 74t90.5 71l16 12q-6 0 -12 -1q-5 -1 -12 -2t-12 -2q-1 -1 -4 -1q-26 -7 -52 -13.5t-52 -14.5q-18 -5 -36.5 -9.5t-36.5 -8.5q-14 -3 -27.5 -4t-27.5 3q-41 9 -44 51q-2 14 0.5 27
t7.5 26q8 23 18 44.5t23 41.5q24 40 50.5 77t55.5 73q42 53 85 102t91 96q30 29 60.5 55t65.5 49q11 8 23 15t25 12q8 3 15 5t15 2q11 -1 17.5 -7t6.5 -17q0 -13 -3 -23t-6.5 -19.5t-7.5 -18.5q-14 -35 -31 -68t-36 -65q-6 -11 -13.5 -21.5t-15.5 -20.5q-5 -8 -13 -13
q-6 -6 -13 -3q-6 1 -7 8q0 6 5 9q10 4 17 16q8 14 16.5 28t16.5 28q16 28 30 56.5t26 57.5q5 10 8.5 20t4.5 21q1 2 1 5q0 6 -6 5q-8 0 -12 -2q-8 -4 -17 -8t-18 -9q-24 -14 -45.5 -31t-42.5 -35q-54 -46 -100.5 -96.5t-91.5 -104.5q-32 -40 -63 -80.5t-59 -84.5
q-14 -21 -26.5 -43t-21.5 -45q-5 -12 -9 -24.5t-5 -26.5v-10t2 -10q4 -19 27 -24q10 -2 20 -1.5t21 2.5q26 5 50 12l48 14q23 5 44.5 11t44.5 11h3q9 2 19 3q8 1 17.5 0.5t18.5 -2.5q2 0 6 4q17 13 34.5 26t34.5 26q43 32 85 65.5t84 67.5q3 3 5 4q2 2 3 2q1 1 1.5 1t1.5 1
h3h3h1q0 -1 1 -1h1q3 -3 3 -4q2 -6 -2 -11t-8 -9zM251 44q4 7 9 16t9.5 18t6.5 17.5t0 14.5q-3 -2 -7 -4q-38 -31 -76.5 -61t-76.5 -61q-26 -21 -51 -43t-48 -46q-16 -16 -30 -33.5t-25 -37.5q-4 -7 -7 -14.5t-5 -15.5q0 -13 7 -15h1l1 -1h1h2h4q6 1 13.5 4t13.5 6q7 4 15 8
q8 5 15 9.5t15 9.5t15 11t15 12q37 30 69.5 64t61.5 71l6 8t7 8q3 5 6.5 9.5t7.5 9.5q5 8 10 14.5t10 14.5q2 2 2.5 3.5t2.5 3.5z" />
    <glyph glyph-name="T" unicode="T" horiz-adv-x="394" 
d="M196 657q8 2 15 2.5t15 2.5q49 9 98 17.5t99 13.5q13 2 26 2h27q6 0 12 -1l12 -2q1 0 5 -2q8 -6 6 -12q-1 -7 -10 -9q-2 0 -3 1q-20 3 -38.5 2t-37.5 -3q-46 -5 -90.5 -12.5t-89.5 -15.5q-14 -3 -28 -5.5t-28 -5.5q-4 0 -5 -3q-14 -29 -27.5 -57.5t-26.5 -57.5
q-23 -52 -42.5 -105t-36.5 -107q-12 -40 -22.5 -79.5t-18.5 -79.5q-5 -26 -9.5 -53t-9.5 -53q-4 -23 -5.5 -46t-2.5 -46q-1 -22 0 -43t7 -42q2 -5 3.5 -9t3.5 -8q11 -20 27 -8q14 9 22 18q11 14 21.5 28.5t21.5 28.5q31 42 61 83t61 83l72 98t71 99q11 14 21 29t21 29
q5 10 15 5q9 -7 4 -16q-7 -13 -17 -27q-46 -63 -91.5 -125.5t-90.5 -125.5q-32 -44 -64 -86.5t-64 -86.5q-9 -14 -19 -26t-23 -22q-10 -8 -22 -13q-24 -6 -40 13q-8 8 -12 18.5t-6 21.5q-5 19 -6 37.5t0 38.5l2 40t3 40l6 42t7 42q6 29 12 56.5t13 56.5q8 37 19 73t23 71
q21 63 46 123.5t54 120.5q2 6 5.5 11.5t6.5 12.5q-3 0 -4 -1q-44 -8 -87.5 -17t-87.5 -18q-27 -6 -54.5 -12t-53.5 -13q-11 -2 -21 -5.5t-21 -7.5q-9 -2 -13 5q-6 9 4 14q5 3 10.5 5.5t10.5 4.5q20 5 39 10t39 10q42 9 82.5 18t82.5 17q21 5 42 8.5t42 8.5q5 0 6 4
q5 11 10 19q2 4 5 5t6 1q8 -4 8 -9q0 -3 -0.5 -6t-0.5 -5q-1 -1 -1 -1.5t-1 -1.5z" />
    <glyph glyph-name="U" unicode="U" horiz-adv-x="525" 
d="M545 322q-11 -20 -21 -38.5t-21 -37.5q-11 -20 -22 -39t-23 -39q-16 -28 -32.5 -56t-33.5 -55q-42 -66 -84 -129q-10 -14 -20 -27.5t-21 -26.5q-5 -5 -10.5 -9t-10.5 -8q-11 -7 -21.5 -3.5t-15.5 14.5q-8 14 -8 31q-2 22 -0.5 43.5t6.5 42.5q8 41 19.5 79.5t25.5 76.5
q19 52 38.5 103.5t39.5 103.5q2 5 3 8.5t3 8.5q-5 -7 -8 -13.5t-8 -13.5q-14 -23 -27 -47t-26 -47q-15 -26 -30 -53t-31 -53q-23 -40 -47.5 -78.5t-51.5 -76.5l-28 -34t-31 -31q-7 -5 -14.5 -10t-14.5 -9q-18 -11 -34 -5.5t-24 23.5q-5 11 -7 22t-3 23q-2 24 -0.5 48t5.5 49
q13 91 35.5 179.5t51.5 176.5q24 71 52 139t59 136q4 7 6.5 14t5.5 14q1 3 1.5 5.5t0.5 5.5q4 13 13 11q11 0 8 -12q0 -5 -1 -9.5t-3 -9.5l-22 -52l-22 -52q-34 -78 -62 -157t-51 -160q-11 -36 -19 -72t-15 -73q-12 -55 -18 -112q-2 -21 -3.5 -41.5t3.5 -40.5q1 -7 3 -13
l4 -12q8 -14 21 -7q9 3 16.5 8.5t13.5 10.5q17 15 31.5 32t27.5 35q21 29 40.5 60t38.5 63l30 50t29 51q13 23 26 45.5t26 45.5q14 23 26 46t25 46q21 38 40 74q10 18 18.5 35.5t16.5 35.5q5 8 8 15.5t7 15.5q0 3 4 5q5 5 14 2q6 -4 4 -11q0 -5 -3 -8q-17 -36 -30.5 -72.5
t-27.5 -73.5q-12 -32 -24.5 -64t-25.5 -64q-23 -58 -44.5 -115t-38.5 -117q-8 -24 -14 -48t-10 -48q-3 -20 -4.5 -40.5t2.5 -40.5q0 -4 4 -12q2 -6 7 -1q3 3 6.5 6t6.5 6l18 22t17 23q31 46 60 91t58 92q16 25 30 50.5t29 51.5q13 22 25 43.5t23 42.5q4 5 6.5 9.5t4.5 9.5
q3 5 5.5 7.5t7.5 2.5q9 0 11 -10v-3z" />
    <glyph glyph-name="V" unicode="V" horiz-adv-x="400" 
d="M-64 -12q1 8 2 14.5t3 14.5q4 19 7 37.5t8 36.5q4 20 8.5 41t9.5 41q8 30 16 60.5t16 60.5q14 42 26.5 83t26.5 83q16 46 33.5 90.5t37.5 89.5q3 8 6 14.5t6 14.5q1 2 1 4t1 4t1.5 5t2.5 6q3 7 11 5q6 0 8 -7q1 -7 -2 -15l-16 -40l-16 -40q-17 -42 -32.5 -82t-28.5 -82
q-13 -39 -25 -78l-24 -78q-8 -29 -15 -57.5t-15 -57.5l-18 -81q-6 -32 -11.5 -63t-7.5 -63q-2 -20 -2 -40t5 -40l4 -10l4 -10q6 -7 13 -3q5 2 8 4t8 5q11 8 20.5 18.5t17.5 21.5q34 43 62 89q17 27 33.5 54t33.5 54q16 26 31 51l30 50q14 23 27 44.5t27 43.5t27 43.5
t26 44.5q14 21 26.5 42t26.5 42q14 23 28 45.5t28 45.5q19 29 37 58.5t37 59.5q8 11 16 23l16 24q2 5 6 8.5t8 7.5q9 7 16 2q7 -7 -1 -16q-23 -30 -43 -62l-40 -64q-20 -31 -39 -62l-38 -62q-20 -33 -40 -65.5t-40 -65.5t-41 -66t-41 -67q-17 -27 -33.5 -55t-33.5 -55
q-25 -40 -49.5 -79.5t-50.5 -79.5q-14 -21 -29.5 -41t-33.5 -37q-14 -15 -31 -24q-33 -16 -48 15q-5 10 -7.5 20.5t-3.5 21.5q-4 27 -1 59v6q1 11 1.5 20.5t2.5 19.5z" />
    <glyph glyph-name="W" unicode="W" horiz-adv-x="555" 
d="M640 696q18 -8 5 -21q-7 -7 -10.5 -15t-7.5 -17q-14 -29 -28.5 -59t-28.5 -60q-11 -25 -22 -49t-22 -50q-13 -28 -25.5 -56t-25.5 -57q-12 -25 -23.5 -50t-22.5 -51q-12 -24 -23 -48.5t-22 -48.5q-12 -26 -24.5 -53t-24.5 -53q-17 -35 -33.5 -69t-36.5 -66
q-8 -11 -15 -22.5t-17 -21.5q-4 -3 -7.5 -6.5t-7.5 -5.5q-13 -8 -24.5 -4t-16.5 18q-7 16 -8 32q-5 26 -4.5 53t2.5 53q3 50 11 98.5t17 97.5q8 47 17.5 93t19.5 94q2 7 2.5 14t2.5 15v2q-3 -5 -6 -9t-5 -9q-36 -65 -71.5 -128.5t-72.5 -127.5q-21 -38 -42.5 -75.5
t-43.5 -75.5q-8 -15 -17.5 -29t-20.5 -27q-3 -4 -7 -7t-9 -5q-18 -3 -23 13q-3 13 -3 27q1 27 5.5 54t10.5 53q11 52 25 103t29 102q17 59 36.5 116.5t42.5 114.5q10 26 21 52t25 51q2 3 4 9q5 5 13 4q6 -1 9 -8q0 -5 -1 -7q-1 -3 -2 -7t-3 -6q-9 -7 -11.5 -16.5t-7.5 -18.5
q-15 -34 -28 -67.5t-26 -68.5q-8 -23 -15.5 -45t-15.5 -45q-14 -45 -27.5 -90.5t-24.5 -92.5q-8 -29 -14 -59t-13 -59q-7 -37 -9 -77q0 -2 1 -5l3 3t2 3q11 16 20.5 30.5t19.5 30.5q30 54 60.5 107.5t60.5 107.5q25 44 49.5 87t48.5 88q6 10 11.5 19.5t11.5 18.5q2 4 5 6.5
t5 5.5q8 7 16 4q10 -3 10 -13q0 -8 0.5 -15t-1.5 -15q-7 -33 -13.5 -66.5t-13.5 -66.5q-9 -48 -17.5 -94.5t-15.5 -94.5q-5 -23 -7.5 -47t-4.5 -48q-2 -23 -2 -45t2 -45q2 -9 3.5 -17.5t3.5 -17.5q1 -2 1.5 -2.5t1.5 -2.5q2 -3 5 -2q2 2 4.5 4t4.5 4q11 11 18.5 22.5
t15.5 24.5q15 26 28.5 53l27.5 55q12 26 24.5 52t24.5 52q11 23 22 47l22 48q11 25 22.5 50t22.5 51l20 44t21 45q11 25 22.5 50t22.5 50q10 21 19.5 42.5t19.5 42.5q12 26 24.5 52t25.5 52q6 13 19 19h4v0z" />
    <glyph glyph-name="X" unicode="X" horiz-adv-x="405" 
d="M-188 -181q23 43 51 82.5t56 80.5q14 20 27 38.5t27 37.5q24 34 48 67.5t49 66.5q15 21 30 41.5t29 40.5q1 1 1 1.5t1 1.5q7 6 8 12t0 13q-4 35 -4.5 71t1.5 72q2 41 3.5 81.5t3.5 82.5q1 17 0.5 33t-0.5 33q0 6 1 9q3 8 13 8q7 0 9 -8q0 -17 1 -32.5t1 -32.5
q0 -18 -1 -36t-2 -35q-2 -40 -4 -79.5t-1 -79.5q1 -17 1.5 -34.5t0.5 -35.5l3 3q23 31 46.5 61t47.5 60q24 31 49 61.5t50 61.5q22 26 44.5 52t46.5 51q5 5 10.5 10t10.5 10q8 8 17 5q8 -2 7.5 -10.5t-5.5 -11.5q-4 -4 -7 -3q-5 0 -10 -5q-20 -23 -40 -46.5t-40 -46.5
t-39.5 -47t-39.5 -48q-17 -22 -34 -43t-34 -43q-16 -20 -31 -40l-30 -40q-4 -5 -8 -10.5t-8 -11.5q-3 -3 -1 -6q2 -19 4 -37.5t4 -37.5q4 -30 7.5 -60t8.5 -60q6 -37 12.5 -73.5t15.5 -72.5q4 -15 8 -29.5t11 -28.5q1 -2 1.5 -4t1.5 -4q2 -8 -7 -13q-11 -4 -15 3q-3 4 -7 12
q-8 17 -12.5 34.5t-8.5 35.5q-10 42 -17 84.5t-13 85.5q-5 34 -8.5 67t-8.5 67v4q-6 -6 -10 -13l-38 -52l-38 -52q-26 -36 -51.5 -72t-51.5 -72q-28 -39 -54.5 -77.5t-52.5 -78.5q-2 -5 -4.5 -9t-5.5 -9q0 -1 -0.5 -2t-0.5 -2q-2 -12 -12 -13q-9 -2 -13 9q0 2 -1 3q1 2 1 4z
" />
    <glyph glyph-name="Y" unicode="Y" horiz-adv-x="487" 
d="M312 245q26 13 52 25.5t52 25.5q15 8 29.5 16t28.5 16q2 1 3.5 2t3.5 2q8 6 16 1q8 -6 1 -14q-5 -6 -12 -9q-17 -9 -33.5 -18.5t-33.5 -17.5q-27 -14 -54 -27t-55 -26q-5 -2 -8 -5.5t-5 -8.5q-25 -63 -60 -127q-27 -47 -60.5 -90.5t-75.5 -82.5q-26 -24 -53.5 -45
t-59.5 -38q-23 -12 -47 -21t-50 -13q-25 -3 -47.5 -0.5t-42.5 14.5q-41 23 -33 72q5 26 18 49.5t31 45.5q32 40 72 72t86 58q39 23 80 39.5t83 32.5q30 11 60 23l60 24q5 2 10 4.5t10 4.5l4 4q7 22 14 43t13 42q10 33 17 66t13 66l18 99q1 7 1 13.5t1 14.5q-1 -2 -3 -4
q-11 -17 -23 -33t-23 -33q-22 -32 -43 -63t-43 -63q-12 -18 -25 -35.5t-27 -34.5q-9 -12 -19.5 -22t-24.5 -18q-11 -7 -22.5 -10t-24.5 0q-11 3 -17.5 9t-11.5 14q-7 11 -9.5 23.5t-4.5 25.5q-2 23 2 46.5t10 46.5q24 86 67 166q7 12 14.5 24t15.5 23q5 7 12 11q8 5 14.5 3
t8.5 -10q1 -5 0.5 -10t-0.5 -10q0 -7 -9 -9q-7 -2 -12 3q0 1 -1 2q-2 -2 -2.5 -3t-2.5 -3q-51 -89 -78 -183q-5 -17 -8.5 -34t-4.5 -34q-2 -15 -0.5 -29t6.5 -28q4 -9 11 -17q11 -11 28 -3q7 3 13 7.5t12 9.5q26 26 48 59l96 141q15 20 29.5 41t29.5 42q5 8 15 16q9 9 19 7
q11 -3 13 -14t1 -21t-3 -21q-2 -12 -4 -24.5t-4 -24.5q-3 -17 -6 -32.5t-6 -32.5q-4 -17 -7 -33t-7 -33q-7 -25 -13.5 -50t-14.5 -51q-2 -6 -4 -12.5t-4 -13.5zM270 202l-2 -1h-1q-19 -8 -37.5 -15.5t-37.5 -14.5q-37 -14 -73.5 -27.5t-71.5 -30.5q-57 -25 -105 -58
q-38 -26 -71 -57.5t-56 -69.5q-10 -15 -16 -30.5t-7 -32.5q0 -18 10 -31q11 -13 27 -18t35 -5q25 -1 48 5t46 17q26 12 49 27.5t45 33.5q51 42 90.5 89.5t70.5 101.5q11 20 20.5 40.5t20.5 40.5q5 9 8 17.5t8 18.5z" />
    <glyph glyph-name="Z" unicode="Z" horiz-adv-x="435" 
d="M173 271q-7 -1 -13 -1.5t-12 -1.5q-19 -3 -37.5 -5.5t-36.5 -5.5q-10 -1 -12 9q0 11 11 13q21 5 42.5 8.5t42.5 6.5q8 2 16.5 2.5t16.5 2.5q3 0 5 3q37 51 73.5 101t73.5 101q22 31 44 61.5t44 62.5q8 10 14 20l12 20q2 2 2 3t1 3q-5 0 -8.5 0.5t-7.5 0.5q-17 -4 -35 -7
t-36 -7q-51 -12 -101 -26.5t-101 -29.5q-63 -20 -126 -30q-2 0 -10 -2q-11 -2 -13 8q0 11 11 14q8 2 15 3.5t14 3.5q23 6 46.5 11.5t46.5 12.5q63 19 125.5 36.5t126.5 31.5q12 2 24.5 4.5t25.5 1.5q3 0 5.5 -0.5t5.5 -1.5q21 -6 13 -30q-2 -8 -7 -16t-10 -15
q-14 -22 -29 -42.5t-30 -41.5l-120 -168q-14 -19 -27.5 -37.5t-27.5 -38.5q-2 -1 -5 -6q8 1 14 2l12 2q12 1 23.5 2t22.5 1q6 0 14 -4q6 -5 4 -13q-3 -10 -12 -8q-12 2 -24 0t-25 -3q-11 -2 -23 -3t-23 -3q-3 0 -6 -3q-29 -38 -58.5 -76t-58.5 -76q-37 -46 -76 -90t-81 -85
l-12 -12t-13 -12l-4 -4q5 0 9.5 0.5t9.5 -0.5q14 -1 27 -1t27 -2q17 -2 33.5 -4.5t33.5 -4.5q17 -3 34 -6.5t34 -6.5q23 -5 46 -9t46 -9q37 -8 74.5 -10.5t75.5 -3.5q32 -1 65 0q10 1 19 2t19 3q4 0 5 5q1 7 9 9q7 2 10 -5q5 -7 3 -14.5t-10 -12.5q-6 -5 -13 -6.5t-14 -2.5
q-21 -3 -41.5 -4t-41.5 0q-52 2 -101 6q-18 2 -36 4.5t-35 5.5q-20 4 -39.5 8t-39.5 8q-19 4 -37 7.5t-37 6.5q-19 2 -37 5t-37 5q-14 1 -28 1.5t-28 0.5q-11 0 -20.5 -1.5t-20.5 -3.5q-3 0 -5 -2q-22 -16 -45 -23q-6 -2 -11 -2q-10 0 -11 8q-3 10 3 16q5 4 9 7.5t9 5.5
q9 4 18 6.5t18 5.5q3 2 6.5 3.5t6.5 3.5q23 17 43.5 37t40.5 41q44 45 84.5 93.5t79.5 98.5q15 20 30 39.5t30 39.5q3 3 4 5z" />
    <glyph glyph-name="bracketleft" unicode="[" horiz-adv-x="140" 
d="M-84 -42q5 17 9 33.5t9 33.5q6 20 11 39t11 38q4 16 8.5 31.5t10.5 31.5q5 20 11.5 40t13.5 40q3 18 8 35t11 34q5 20 11.5 40.5t12.5 40.5l16 46t17 46q18 49 41 97q2 6 7 12q5 7 11.5 12t15.5 5q7 2 14.5 3t15.5 2h3q10 -2 8 -11q-4 -9 -14 -9q-7 -1 -13.5 -2t-11.5 -2
q-8 -1 -11 -9q-5 -11 -10 -20t-10 -20q-9 -25 -19.5 -50.5t-19.5 -50.5q-6 -18 -12.5 -36t-11.5 -37q-6 -17 -12 -36t-11 -37q-5 -17 -10 -34.5t-11 -34.5q-11 -34 -19 -71q-6 -16 -10.5 -31.5t-9.5 -31.5q-6 -20 -11 -39t-10 -39q-5 -15 -9 -30t-9 -30l-4 -16t-4 -17
q-2 -11 11 -8q2 1 4 1h4q7 -2 7 -8q0 -8 -8 -11q-6 -4 -11.5 -4.5t-10.5 0.5q-12 3 -16 9t-2 17q2 10 4 19.5t4 18.5h1z" />
    <glyph glyph-name="backslash" unicode="\" horiz-adv-x="298" 
d="M82 607q0 8 6 10q8 2 10 -5q7 -40 13.5 -78.5t13.5 -77.5q12 -69 24 -137.5t23 -137.5l24 -138t23 -138q2 -10 -5 -10q-8 -3 -10 5q-7 39 -13.5 78t-13.5 77q-12 69 -24 137.5t-23 138.5q-12 69 -24.5 138t-23.5 138z" />
    <glyph glyph-name="bracketright" unicode="]" horiz-adv-x="162" 
d="M149 618h8q21 -3 18 -26q-1 -13 -4.5 -25t-8.5 -25q-7 -24 -15.5 -48.5t-16.5 -49.5t-16.5 -49.5t-17.5 -50.5q-5 -19 -10.5 -38t-11.5 -38q-7 -21 -13 -42t-12 -41q-5 -20 -10.5 -38.5t-10.5 -37.5q-8 -26 -14 -50t-13 -47q-5 -17 -9.5 -35t-9.5 -35l-2 -6t-3 -7
q-1 -6 -5.5 -11t-9.5 -8q-9 -5 -19 -9t-19 -6q-7 -2 -11.5 2t-2.5 11q1 5 5.5 8t9.5 2q3 -2 6 0q5 2 8.5 4t8.5 4q8 3 9 10q5 15 9 30l8 30q6 20 11.5 38.5t10.5 38.5q4 14 7 27.5t7 27.5q5 17 9.5 33t9.5 33q4 14 8.5 28t7.5 28q10 37 23 75q6 20 12 39t12 39q8 20 15 39
t13 38q8 26 16 50l16 48q1 4 1 8t1 7q0 5 -3 5h-11h-6q-7 4 -6 10q3 8 10 9q3 1 11 1z" />
    <glyph glyph-name="asciicircum" unicode="^" horiz-adv-x="198" 
d="M175 620q-3 -5 -6.5 -8.5t-6.5 -8.5q-8 -11 -15 -20t-15 -20q-2 -2 -2.5 -4t-2.5 -4q-5 -9 -13 -7q-10 2 -6 11q1 3 2 5t3 4q25 41 54 74q4 6 12 12t15.5 4t7.5 -11q0 -8 -1 -16.5t-3 -16.5l-12 -51q-2 -3 -3 -6.5t-3 -6.5q-3 -8 -13 -6q-9 2 -7 11l15 60q0 1 0.5 1.5
t0.5 1.5v1q0 1 -1 1z" />
    <glyph glyph-name="underscore" unicode="_" horiz-adv-x="255" 
d="M159 201q0 -9 -9 -12q-7 0 -14.5 -1t-15.5 -1h-80q-8 0 -16 1t-15 1q-8 0 -12 4.5t-2 9.5q3 5 9 5h32h32.5t32.5 1h22.5t22.5 1q9 0 13 -9z" />
    <glyph glyph-name="grave" unicode="`" horiz-adv-x="202" 
d="M199 588q-4 -9 -7 -10q-8 -2 -13 2q-2 3 -4.5 6.5t-4.5 6.5q-8 14 -13 28.5t-10 28.5q-2 8 7 13q8 2 13 -8q2 -7 4.5 -14.5t6.5 -15.5t8 -14.5t9 -14.5q1 -4 4 -8z" />
    <glyph glyph-name="a" unicode="a" horiz-adv-x="131" 
d="M145 332q4 -3 4 -7t-2 -7q-11 -16 -19 -29l-1 -2q-3 -5 -6 -9.5t-6 -9.5l-67 -110l-1 -2q-2 -4 -9 -12.5t-15 -11.5h-1v-1h-5h-1q-9 2 -13 10q-3 5 -4 11.5t-1 12.5q0 20 3 38t8 37l2 8l2 8q-2 0 -2 -2q-1 -1 -1.5 -1t-1.5 -2q-6 -6 -18.5 -15t-20.5 -4q-1 0 -1 0.5
t-1 0.5q-7 7 -7 18q0 14 4 25q0 1 2.5 8.5t7.5 16.5t12.5 19t17.5 17q2 1 2.5 1.5t2.5 1.5q9 5 18 4q8 -3 13 -12q0 -3 3 -3q15 -3 13 -18q-3 -13 -7 -23q-6 -17 -11.5 -34t-9.5 -35q-3 -14 -5 -27t-2 -27q0 -3 1 -5q4 5 7 10t7 10q5 9 10.5 18t11.5 18l35 57l21 34
q5 6 8.5 12.5t8.5 12.5q2 4 6.5 3.5t7.5 -3.5zM3 284q8 11 11.5 17.5t5.5 11.5t3 8q-5 -3 -10 -7q-11 -9 -19 -25q-2 -3 -6 -14.5t-4 -13.5q12 12 19 23z" />
    <glyph glyph-name="b" unicode="b" 
d="M194 334q5 2 8.5 -0.5t4.5 -6t-0.5 -8t-6.5 -5.5q-52 -18 -98 -48q-1 -5 -2 -10.5t-3 -11.5q-13 -34 -40 -58q-9 -8 -19.5 -13t-23.5 -7q-10 -2 -19 0q-17 5 -14 23q1 6 4 11.5t7 10.5q17 22 44 39q11 8 21 14.5t21 13.5q3 3 2 6v3q-2 9 -8 13t-14 -1q-12 -7 -25 -18
q-7 -6 -13 -13l-12 -14l-3.5 -3.5l-3.5 -3.5q-8 -6 -15 0q-6 4 -6 13l43 165q11 39 23.5 78t26.5 77q11 30 21 60.5t21 61.5q2 5 3 10t3 10q5 11 14 8q5 -2 6.5 -7t-0.5 -10t-3.5 -11t-3.5 -11q-6 -23 -13.5 -44.5t-15.5 -43.5q-17 -48 -33 -95t-30 -97q-8 -29 -15 -58.5
t-15 -58.5v-1l7 7t7 6q5 4 11 8t12 6q15 7 28.5 1t20.5 -21l3 -9q22 14 45.5 24.5t47.5 18.5zM70 240q2 4 3 7q-20 -13 -37.5 -26t-31.5 -33q12 0 22 5q15 8 25.5 20t18.5 27z" />
    <glyph glyph-name="c" unicode="c" horiz-adv-x="109" 
d="M108 332q3 4 7 3.5t7 -3.5t3.5 -7.5t-2.5 -8.5q-10 -11 -20 -21.5t-20 -21.5q-17 -20 -35 -38q-8 -10 -16.5 -18.5t-18.5 -16.5q-8 -6 -18 -10.5t-20 -2.5h-1q-2 0 -4 1q-6 1 -11 5v1q-9 8 -10 21t1 24q2 8 3.5 14.5t3.5 11.5q8 26 17 40t17 22v1q2 2 12 8.5t21 0.5
q7 -3 8 -12v-6.5t-1 -6.5q-3 -10 -12 -8q-8 2 -8 11v2q-2 -2 -4 -3t-4 -3l-6 -9h-1q-1 -2 -2 -3.5t-2 -3.5q0 -1 -1 -2q-5 -11 -12.5 -29t-7.5 -41q0 -7 1 -9q0 -2 1 -3q0 -2 3 -3q4 -1 8.5 0.5t7.5 3.5q11 7 20.5 16t17.5 18q20 22 39 43t39 43z" />
    <glyph glyph-name="d" unicode="d" horiz-adv-x="134" 
d="M162 621q4 -1 7 -4t2 -8q-2 -5 -2.5 -10.5t-2.5 -10.5q-16 -42 -32 -82.5t-31 -82.5l-12 -36t-11 -36q-9 -29 -18 -57.5t-17 -57.5v-1q-18 -61 -34 -122t-27 -112q-13 -59 -24 -114v-5q-1 -2 -1 -4t-1 -4q-1 -5 -5 -7t-8 -1q-9 3 -7 14q3 20 6.5 39.5t8.5 39.5
q12 64 27.5 127t33.5 126l3 15l9 30q1 1 1 3q-3 -3 -5.5 -6.5t-5.5 -7.5q-5 -8 -11 -15t-16 -12q-5 -5 -13 -5q-9 -1 -16.5 4.5t-9.5 14.5q-4 18 4 40t22 39.5t31 25t30 -3.5q6 7 7 14q15 31 27.5 62t24.5 63q7 19 14 37l14 36q6 16 11.5 31.5t10.5 31.5q1 2 1 3t1 3
q5 8 14 6zM-25 238q6 1 13.5 9.5t14.5 20t13.5 24.5l11.5 23q-5 4 -8.5 2t-7.5 -4q-28 -23 -37 -59q-3 -7 0 -16z" />
    <glyph glyph-name="e" unicode="e" horiz-adv-x="131" 
d="M131 332q4 4 8 3.5t7 -3.5t4 -7.5t-2 -7.5q-9 -10 -18 -19l-18 -18q-17 -16 -34.5 -31t-36.5 -29q-8 -6 -17 -12t-20 -11q0 -1 -1 -1h-2l-2 -1q-5 -2 -11.5 -2.5t-11.5 3.5q-2 2 -3 2v1q-4 4 -5 7q-5 10 -5 24q-1 23 3.5 44t16.5 40q12 23 35 29q8 3 17.5 0t14.5 -10
q8 -13 4 -26q-5 -21 -22 -28q-22 -9 -32 14q0 2 -1 3q-3 -4 -6 -13.5t-5 -21t-2.5 -23.5t1.5 -19q0 -2 2 -3t7 1l2 1h1l2 2q9 4 20 13q10 7 19 14.5t19 15.5q20 16 37.5 33t34.5 36zM24 300q7 5 9 17q0 4 -4 4q-5 1 -7.5 -1.5t-3.5 -6t-0.5 -6.5t0.5 -4v-1q2 -5 6 -2z" />
    <glyph glyph-name="f" unicode="f" horiz-adv-x="164" 
d="M174 327q2 -4 -0.5 -8t-6.5 -5q-60 -9 -121 -21h-1q-1 -1 -3 -1q-5 -1 -6 -2.5t-2 -1.5q-1 -2 -1.5 -4.5t-0.5 -7.5v-19t1 -19q7 -65 -10 -135q-7 -24 -15 -47.5t-20 -45.5q-5 -10 -10.5 -18.5t-13.5 -15.5q-7 -7 -15 -7q-14 2 -18 13q-4 8 -4.5 17.5t0.5 18.5
q2 42 9.5 81t17.5 79q6 23 12.5 45.5t12.5 45.5l19 60q9 28 18 55.5t19 55.5l69 192q5 11 8 22t7 22q2 3 0 5q-3 12 6 19q5 3 10 0q7 -4 7 -10l-3 -21q-7 -26 -16 -51l-18 -50q-17 -47 -33 -92.5t-33 -91.5q-19 -54 -35 -108.5t-30 -110.5q-7 -27 -12.5 -54t-8.5 -55
q-2 -12 -2.5 -24.5t-1.5 -24.5q0 -3 0.5 -6t0.5 -7q2 2 3 2.5t2 2.5q5 8 9.5 16t9.5 16q26 59 35 120q3 17 3.5 35.5t-0.5 36.5q-1 12 -1.5 24t-0.5 25q-1 8 0 15q1 6 3.5 12t7.5 8q5 3 18 6l9 2q29 5 56.5 10t56.5 10q11 2 13 -8z" />
    <glyph glyph-name="g" unicode="g" horiz-adv-x="129" 
d="M141 332q3 -3 4 -8t-3 -7q-59 -50 -109 -109q-2 -7 -3 -12.5t-2 -10.5q-11 -44 -24 -84q-16 -43 -34 -79q-10 -18 -18 -29q-1 -1 -7 -10.5t-16 -21.5q-13 -14 -22.5 -20.5t-11.5 -7.5q-13 -7 -20.5 -6t-11.5 5.5t-5 9.5l-1 5q-1 8 1 15.5t4 15.5q3 10 6.5 19.5t7.5 18.5
q8 20 17.5 38t20.5 35q4 5 7 10.5t6 10.5q3 3 6 9l27 39q1 1 3 5q10 13 19 24.5t17 20.5q9 11 16 20q3 14 5.5 27t4.5 27v3q-4 -6 -5 -8q-7 -8 -13 -15.5t-14 -14.5q-2 -4 -6 -5q-2 -2 -4 -3q-6 -3 -10 -1.5t-6 3.5q-5 5 -6.5 12t-0.5 14t3 13t4 10q9 20 18.5 31t17.5 17
q9 7 18 9h6q11 -1 16 -13q0 -2 2 -4q7 -7 5 -21q-1 -7 -1.5 -13.5t-2.5 -13.5q0 -4 -1 -9t-2 -10.5t-2 -12.5q40 44 85 82q8 7 15 0zM-19 265q14 14 23.5 29t20.5 30q0 1 -1 2q-4 -2 -5 -3q-8 -5 -14 -13t-11 -16q-9 -13 -13 -29zM-21 96q8 20 14 41.5t11 43.5q-1 -2 -3 -4
h-1q-6 -8 -11.5 -16.5t-11.5 -16.5q-22 -31 -41.5 -62t-35.5 -65q-1 -3 -2 -5.5t-2 -4.5q-13 -31 -15.5 -44t-2.5 -16q0 -1 1 -2q10 4 21 15q10 9 22.5 25.5t26.5 42.5q9 17 16 33.5t14 34.5z" />
    <glyph glyph-name="h" unicode="h" horiz-adv-x="198" 
d="M212 333q4 -2 4.5 -6.5t-1.5 -8.5q-2 -2 -2.5 -4.5t-2.5 -4.5q-2 -4 -4 -7t-4 -7l-117 -219q-8 -16 -16.5 -31t-16.5 -31q0 -1 -0.5 -1.5t-0.5 -1.5q-2 -2 -2 -3q-2 -2 -2 -4q-8 -14 -19 -27.5t-21 -12.5q-8 0 -9.5 10.5t-0.5 17.5q0 6 0.5 11t1.5 10l2 10q2 14 5.5 27.5
t8.5 27.5q15 47 30.5 93t31.5 93q2 6 2 11q-4 -4 -6 -7q-19 -22 -37 -44t-37 -45q-4 -5 -8.5 -8.5t-9.5 -7.5q-4 -4 -10 -4q-12 0 -14 12q0 10 1 14q4 17 7.5 32.5t8.5 31.5q2 8 4.5 16t4.5 16l21 66q2 4 2.5 7.5t2.5 7.5q11 35 23 70.5t23 70.5q12 35 23.5 71t22.5 71
q8 23 15.5 45t15.5 45q2 4 4 6q3 6 10 3q7 -2 7 -9q0 -2 -2 -8l-21 -63l-69 -213q-19 -57 -37 -114t-35 -115q-2 -6 -3.5 -12t-3.5 -12q0 -2 2 -4q1 3 5 7q19 23 38 47t39 47l7.5 7.5t6.5 7.5l9 6q7 3 12.5 0t7.5 -11v-5.5t-1 -5.5q-4 -14 -8 -27.5t-8 -27.5
q-14 -42 -28 -83.5t-28 -83.5q-2 -7 -4 -13.5t-4 -14.5q-2 -10 -3 -17.5t-2 -12.5l-3 -12q5 8 8.5 14.5t8.5 14.5q10 19 19.5 37t19.5 37l107 198l4.5 9l9.5 19q2 4 7 4t8 -2z" />
    <glyph glyph-name="i" unicode="i" horiz-adv-x="140" 
d="M138 332q4 4 8 3t7 -4t3.5 -7t-3.5 -8l-11 -11t-11 -12q-14 -14 -27.5 -28.5t-27.5 -28.5l-3 -3l-7.5 -7.5t-6.5 -7.5l-23.5 -23.5t-25.5 -22.5q-1 -1 -1.5 -1t-1.5 -1q-4 -4 -7 -5q-17 -12 -25.5 -10t-11.5 6q-4 4 -5 9q-2 9 -1.5 18t2.5 18q1 5 3 11t6 19t11 35t19 59
q5 10 15 7q9 -3 5 -16q-5 -16 -11 -32t-11 -32l-6 -20t-6 -21q-2 -9 -3.5 -20t-0.5 -20q5 3 14 10q8 6 19 16t27 27l25 26q18 20 36.5 38.5t36.5 38.5zM40 423q-5 -1 -8.5 3t-3.5 9q0 10 11 10q10 0 10 -11q1 -5 -2 -8t-7 -3z" />
    <glyph glyph-name="j" unicode="j" horiz-adv-x="114" 
d="M7 429q-5 -1 -8.5 3t-3.5 9q2 10 11 10q11 0 11 -11t-10 -11zM113 332q4 3 8 2.5t7 -3.5t3.5 -7t-3.5 -7q-29 -26 -57 -51t-57 -50v-3q-1 -5 -3 -13q-6 -25 -13 -49t-15 -48q-14 -38 -29 -73.5t-35 -70.5q-9 -16 -19.5 -31t-24.5 -28q-13 -13 -28 -20q-19 -9 -35.5 -1.5
t-23.5 29.5q-3 12 -3.5 23.5t1.5 22.5q4 24 13 46t21 42q20 33 45 61.5t53 54.5q18 17 36.5 33t36.5 33l3 3q2 9 3.5 18t2.5 19q2 17 2 33t-2 33q0 11 11 11q9 0 11 -11q1 -16 1.5 -31.5t-1.5 -31.5q0 -3 -0.5 -8t-1.5 -10q23 21 46.5 42t46.5 41zM-19 172q1 4 2 7.5t2 7.5
l-1 1l-2 -2l-20 -18l-20 -18q-29 -27 -55 -56t-47 -63q-14 -22 -22.5 -45t-10.5 -50q-2 -16 5 -29t19 -9q5 2 9 4.5t9 5.5q15 11 26 25.5t21 30.5q13 22 23.5 45t21.5 46q12 29 22 58t18 59z" />
    <glyph glyph-name="k" unicode="k" horiz-adv-x="196" 
d="M195 332q4 3 8 2.5t7 -3.5t3.5 -7t-3.5 -7q-32 -30 -60 -63q-12 -14 -23 -29l-22 -30q-5 -8 -10.5 -15t-11.5 -15q-3 -4 -6 -7.5t-6 -6.5t-6 -7t-8 -6q-5 -3 -10.5 -0.5t-8.5 7.5q-3 4 -5 14q-1 10 -1.5 19.5t-0.5 20.5q1 9 1.5 18t2.5 18q0 2 2 10q1 4 2 7l-13 -16
l-7 -8q-5 -7 -9 -13t-9 -13t-9.5 -14t-9.5 -15q-2 -3 -4 -5.5t-4 -4.5q-5 -4 -13 -1q-7 3 -7 11q0 6 2 14q4 14 7.5 28t8.5 28l37 124q22 69 45.5 136.5t47.5 135.5q7 17 12.5 34.5t10.5 35.5q1 2 1 5t1 5q0 4 1 6q4 8 12 6q9 -2 9 -11q0 -5 -2 -15q-7 -30 -16.5 -59
t-19.5 -58q-19 -53 -37 -105t-36 -105q-1 -3 -3 -11l-1 -1q-1 -4 -2 -7.5t-2 -7.5q-3 -8 -6 -18t-6 -18q0 -2 -0.5 -3t-0.5 -2l-10 -34l-10 -34q-1 -1 -1 -4l3 3q23 26 44.5 52t44.5 52q4 4 8 7.5t9 7.5q6 6 16 6q8 0 12 -9q2 -9 -6 -12q-7 -3 -11.5 -8t-9.5 -10
q-6 -6 -8 -9l-27 -29q-1 -3 -3.5 -11.5t-5.5 -19.5t-5.5 -22.5t-2.5 -20.5q0 -2 -0.5 -3t-0.5 -3q-2 -17 0 -32q0 -9 1 -13q6 7 11.5 13.5t10.5 14.5q28 39 55 73q30 35 64 67z" />
    <glyph glyph-name="l" unicode="l" horiz-adv-x="140" 
d="M110 275l-93 -93q-5 -5 -11.5 -10t-12.5 -10q-5 -3 -12 -3q-16 0 -16 18q0 16 3 31t6 29.5t7 28.5l29 106q12 39 25 77.5t27 76.5q11 32 22.5 64t22.5 64q2 6 3.5 12t3.5 12q3 12 13 11q5 -1 7.5 -5t0.5 -9l-2 -6t-2 -7q-6 -23 -13.5 -44.5t-15.5 -44.5
q-16 -45 -31.5 -90.5t-30.5 -91.5q-14 -44 -26.5 -87.5t-21.5 -88.5q-2 -8 -3 -14.5t-2 -14.5h1q2 2 3 2.5t3 2.5q9 9 18 17.5t17 17.5q25 25 49.5 49t49.5 49q4 4 10 8q3 3 6 3q5 -1 6.5 -4t1.5 -6q0 -4 -1 -8l-37 -38z" />
    <glyph glyph-name="m" unicode="m" horiz-adv-x="248" 
d="M198 342q7 -5 5 -12q-2 -5 -3.5 -10t-3.5 -10q-18 -38 -32 -77.5t-27 -80.5q-5 -14 -8.5 -28.5t-7.5 -28.5q-1 -2 -1 -7t-3 -8t-8 -2q-5 0 -8 3.5t-2 8.5q1 8 2 15t3 14q19 70 45 138q3 8 6.5 16.5t6.5 16.5v2q-1 -2 -5 -6q-16 -22 -32 -43t-32 -43q-6 -8 -11.5 -15
t-10.5 -14l-6 -6t-7 -6q-8 -6 -16 -1q-10 5 -8 14v9.5t2 9.5q5 22 11.5 42t14.5 40q1 2 1 5q-5 -5 -9 -10t-9 -10q-16 -20 -31 -39t-31 -39q-3 -5 -8 -8q-6 -6 -15 -3q-3 2 -5.5 6t-0.5 9v4l18 61q7 23 14 44.5t15 43.5q4 10 14 7t7 -13l-24 -69l-13 -41v-1q2 2 2 3l36 42
t37 42q2 4 6 6.5t7 4.5q8 5 16 -1q8 -5 6 -15q-2 -6 -3.5 -12t-3.5 -11l-21 -57q-2 -5 -3.5 -11.5t-3.5 -12.5q-1 -1 -1 -5h1l15 21q18 24 35 48t37 47q7 8 13.5 14.5l13.5 13.5q2 2 4.5 3.5t5.5 3.5q9 3 14 -2z" />
    <glyph glyph-name="n" unicode="n" horiz-adv-x="218" 
d="M229 334q4 -2 5 -7t-1 -8q-8 -11 -17 -22.5t-17 -22.5l-117 -162q-2 -4 -5 -7.5t-6 -7.5l-13 -13q-10 -8 -21 -3q-11 4 -11 18q0 8 0.5 15.5t1.5 15.5q4 26 11.5 50.5t16.5 48.5l27 72l2 4q-2 -2 -2.5 -2t-1.5 -1q-26 -26 -49.5 -55t-44.5 -61q-3 -6 -7 -10q-8 -8 -18 -3
q-9 5 -7 16q3 11 5.5 22.5t6.5 22.5q8 23 15.5 46.5t15.5 46.5q2 4 3.5 6.5t6.5 4.5q6 2 11 -3q4 -6 3 -11q-3 -9 -6.5 -18t-5.5 -17q-4 -11 -7 -22t-7 -22q0 -1 -0.5 -1.5t-0.5 -2.5q7 8 12.5 15.5t12.5 15.5q27 30 57 60q2 3 5.5 5.5t7.5 4.5q9 5 17.5 0t7.5 -16
q0 -7 -2 -13.5t-4 -12.5q-7 -20 -14.5 -39.5t-15.5 -39.5q-9 -24 -16.5 -48.5t-11.5 -50.5v-8l1 -1q4 6 8 11.5t9 10.5l39 54l93 123l15 19q5 6 13 3z" />
    <glyph glyph-name="o" unicode="o" horiz-adv-x="111" 
d="M110 334q4 2 8 0.5t6 -5t1.5 -7.5t-4.5 -7q-13 -8 -27.5 -11.5t-28.5 -4.5q-8 0 -15.5 0.5t-15.5 1.5v1v-11q1 -28 -19 -52q-6 -8 -16 -11q-13 -6 -22 0t-11 20q-1 15 5 32q3 9 8 19q2 5 5.5 12t8 13t8.5 10t8 4q1 0 1.5 0.5t1.5 0.5q6 0 8 -1q4 -3 7 -9v-1
q2 -5 7.5 -5.5t10.5 -1.5q5 0 11 -0.5t12 0.5q23 2 42 13zM-11 248q6 2 11.5 8.5t8.5 15.5t3.5 18.5t-2.5 18.5q-16 -22 -20 -45q-1 -4 -2 -7.5t1 -8.5z" />
    <glyph glyph-name="p" unicode="p" horiz-adv-x="182" 
d="M197 330q2 -4 1 -8.5t-5 -6.5q-5 -2 -8.5 -4t-8.5 -4l-1 -1l-15 -7.5t-14 -7.5l-46 -23q-8 -18 -20.5 -33t-27.5 -28q-12 -10 -24 -17q-17 -13 -38 -14q-4 -1 -7.5 -0.5t-8.5 0.5q-2 -6 -4.5 -12t-4.5 -13q-10 -29 -19 -59t-19 -59q-8 -26 -16 -51.5t-16 -51.5
q-10 -32 -19.5 -63t-18.5 -62q-2 -5 -2.5 -8.5t-2.5 -7.5q-4 -12 -14 -9q-11 2 -8 13q0 1 0.5 2t0.5 2q2 7 4 13l4 12q11 38 22.5 75.5t23.5 75.5q14 46 29 92l30 92l4 12t4 13q20 65 34.5 109t14.5 46l3.5 3.5l3.5 3.5h1l2 1q5 2 10 -1.5t4 -10.5l-3 -15l-5 -15q3 2 6.5 5
t7.5 6q8 7 15.5 12.5t16.5 8.5q12 4 25 1q10 -2 16.5 -10.5t6.5 -19.5v-9q17 9 35 18.5t36 18.5q10 3 15 -4zM-9 199q19 4 32.5 14t26.5 24q-15 -9 -30 -17.5t-29 -20.5zM3 236q20 11 39 22t39 22q2 0 2 2q6 11 5 23q0 13 -13 10q-11 -4 -19 -9q-13 -9 -23 -21.5t-19 -26.5
q-3 -5 -6 -10.5t-7 -12.5q1 1 2 1z" />
    <glyph glyph-name="q" unicode="q" horiz-adv-x="136" 
d="M-5 -43q-3 -8 -6 -15t-8 -14q-5 -9 -12 -15q-8 -7 -16.5 -4.5t-13.5 12.5q-6 15 -4 34q2 34 9 67t16 65q11 38 22.5 74.5t22.5 74.5q2 8 5 15.5t5 15.5q1 1 1 4l-9 -12l-7 -7t-7 -6q-10 -9 -20 -3q-6 2 -8 7t-3 11q-1 18 8 35q1 2 2 3.5t2 3.5l6.5 9t16 18.5t20.5 17
t22 4.5q4 -2 9 -6l2 -2q12 -6 8 -18q-2 -10 -5.5 -19.5t-6.5 -19.5q-11 -35 -23 -70.5t-23 -70.5q-9 -29 -17 -57t-14 -57q-3 -17 -6 -33.5t-5 -33.5q-1 -7 -0.5 -14t0.5 -14q0 -1 1 -3q2 4 4 7t3 7l21 48l42 99l33 75q2 3 3 5.5t2 5.5l62 136q2 3 3 6.5t3 6.5q2 4 6.5 5
t8.5 -1q8 -6 3 -15q-2 -6 -5 -11.5t-5 -10.5v-1q-2 -4 -2 -5h-1q-2 -6 -5 -11.5t-5 -11.5l-6 -12q-4 -8 -8 -17q-4 -8 -7.5 -18t-8.5 -20q-10 -23 -20.5 -47t-20 -45.5t-17 -38.5t-11.5 -26zM-14 269l22 30t22 31q-7 -2 -14.5 -9.5t-14.5 -16.5t-11.5 -18t-4.5 -16z" />
    <glyph glyph-name="r" unicode="r" horiz-adv-x="144" 
d="M157 334q10 -5 6 -15q-14 -21 -27.5 -42t-26.5 -42q-12 -18 -25 -36.5t-24 -36.5q-1 -2 -2 -3.5t-2 -3.5q-2 -3 -6 -7.5t-8.5 -8t-9.5 -5t-9 2.5q-6 5 -8.5 13.5t-2.5 15.5q-3 19 4 42q3 13 9 27q1 4 3.5 10.5t4.5 12.5q3 7 6 15l5 11q-5 -5 -10.5 -8.5t-13.5 -5.5
q-11 -2 -19 4t-10 17t1.5 20.5t6.5 19.5q2 10 13 8q4 -2 7 -5.5t1 -8.5q-2 -4 -3.5 -8t-3.5 -8q-4 -8 -3 -13q1 -6 5 -5t8 4q2 2 4 3.5t5 3.5l31 32q0 1 0.5 1t0.5 1q1 0 2 0.5t2 0.5h1h1q2 0 5 -0.5t6 -3.5q2 -2 3 -4t1 -8q-1 -2 -1 -6l-23 -46q-3 -5 -4 -11h-1
q-3 -7 -5.5 -14t-5.5 -14q-3 -11 -6 -21t-5 -21q-1 -5 -1.5 -10.5t0.5 -10.5q1 -2 0.5 -3t0.5 -3q4 6 6 10q4 5 7 11t8 12l30 45q14 23 28.5 45.5t29.5 45.5q2 4 6.5 5t7.5 -1z" />
    <glyph glyph-name="s" unicode="s" horiz-adv-x="241" 
d="M255 330q5 -10 -4 -15q-13 -10 -25.5 -19.5t-25.5 -20.5q-38 -32 -72 -66q2 -2 3 -4l2 -4q1 0 1 -1l6 -12q7 -23 1 -50q-5 -17 -12 -32.5t-16 -30.5q-17 -31 -37 -59.5t-41 -57.5q-26 -36 -53 -71t-56 -68q-11 -12 -23 -24t-26 -23q-7 -5 -13.5 -9t-14.5 -7q-17 -6 -29 2
t-13 26q-1 11 1.5 20.5t5.5 19.5q7 19 15.5 36t19.5 34q16 26 34.5 50.5t37.5 49.5q32 42 64.5 82t66.5 80q6 7 13 15t13.5 15.5t11.5 13t7 7.5l-12 9l-12 6l-2 2q-10 5 -20 9.5t-20 9.5q-5 2 -8.5 5t-7.5 5q-8 5 -14 13l-1 1q-6 8 -9 17q-5 15 -0.5 28.5t9.5 21.5q0 1 2 3
q19 32 50 54q14 9 32 11q22 2 24 -20q2 -8 2 -10q0 -8 -6 -11q-9 -2 -12 5q-2 6 -4 16h-2q-2 -1 -5 -1l-2 -1q-15 -4 -28 -17t-23 -27q-2 -2 -3.5 -5t-3.5 -6q-1 -2 -3 -7t-2.5 -12.5t1.5 -16t10 -16.5q2 -1 2.5 -2t2.5 -2q1 0 1 -1q4 -2 8 -5t9 -5l24 -12q16 -8 31 -17h1
q1 0 2 -1q3 -3 5 -4q59 59 127 109q4 3 8.5 1.5t6.5 -4.5zM115 127q3 10 5.5 19.5t1.5 20.5q0 12 -9 26q-5 -4 -8.5 -8t-6.5 -8q-43 -50 -84 -100t-81 -102q-19 -25 -37 -49.5t-34 -50.5q-9 -16 -16.5 -31.5t-12.5 -32.5q-2 -6 -3 -12t-1 -12q-1 -16 14 -10q5 2 9.5 4.5
t8.5 6.5q10 8 19.5 16.5t18.5 17.5q17 20 33 39t32 39q32 39 61.5 79.5t55.5 83.5q10 16 18.5 31.5t15.5 32.5z" />
    <glyph glyph-name="t" unicode="t" horiz-adv-x="183" 
d="M232 524q2 -9 -6 -12q-4 -1 -7 -1t-7 -1q-14 -1 -27 -2t-27 -2q-14 -2 -28 -2.5t-28 -2.5q-5 0 -10 -0.5t-10 -0.5l-3 -1q-3 0 -4 -3q-5 -14 -10 -27.5t-10 -27.5q-9 -26 -17 -53t-15 -54q-6 -26 -11.5 -52t-8.5 -53q-2 -14 -2.5 -26.5t1.5 -26.5l3 -9q2 -5 6 -4
q5 2 9.5 4.5t8.5 5.5q14 11 27 23.5t26 26.5q23 26 46 51.5t46 51.5q3 2 7 6q8 7 16 -1q3 -3 3.5 -7.5t-3.5 -8.5q-13 -14 -25 -27.5t-25 -27.5q-18 -20 -36.5 -39.5t-36.5 -39.5q-9 -9 -18 -17t-20 -15q-13 -8 -26 -8q-16 0 -24 16q-5 8 -6 16.5t-2 17.5q0 29 4 56t10 54
q2 7 3 13t3 13q11 46 24 89t27 81l-89 -7q-11 -1 -23 -2t-23 -2l-36 -4t-35 -4t-34.5 -4t-34.5 -4q-6 -1 -11 1.5t-5 10.5q0 5 5 7t7 3h1q15 2 30 3.5t30 3.5q18 2 35.5 4t34.5 4q14 2 27 3t27 2q17 2 33.5 3t33.5 3h8l27 2q23 57 41.5 96t24.5 50q0 1 1 2q0 1 1 2v1
q9 16 17.5 31.5t19.5 30.5q2 2 3.5 4.5t3.5 4.5q6 6 14 2q9 -4 6 -13q-1 -5 -2 -8.5t-3 -7.5q-12 -23 -24 -45l-24 -44q-27 -48 -48 -99q-1 -1 -1 -2t-1 -2h2h6q5 1 15 1q11 1 20.5 1.5t19.5 2.5q17 1 32.5 2t32.5 3h7q9 0 11 -9z" />
    <glyph glyph-name="u" unicode="u" horiz-adv-x="185" 
d="M198 332q3 -3 2.5 -7.5t-2.5 -7.5q-3 -4 -6.5 -8t-6.5 -8q-10 -12 -19.5 -24.5t-19.5 -24.5l-87 -112q-2 -3 -9.5 -10t-15.5 -4q-1 1 -2 1t-1 1h-1q-5 4 -6 12q-1 6 -1 13t2 13q4 17 8.5 34t9.5 34v4q-3 -3 -5 -7l-18 -24t-18 -23l-7.5 -7.5t-8.5 -6.5q-8 -5 -16 -1.5
t-10 13.5q-1 14 0 29q2 6 2.5 12t2.5 12q4 14 11.5 36t11.5 33l1 1q0 1 2 7l4 10l4 10q4 11 13 8q10 -3 7 -14q0 -2 -0.5 -3t-0.5 -3q-3 -7 -5.5 -14t-5.5 -15q-7 -20 -13 -39.5t-9 -39.5q-1 -4 -1 -12q2 2 4 4.5t4 5.5q17 23 35 47t35 48q4 5 7 8.5t7 7.5q9 9 17 5
q9 -6 6 -17l-12 -30q-27 -58 -39 -120l4 4q11 16 23 31t23 30l42 54t43 54q2 3 7 3t8 -3z" />
    <glyph glyph-name="v" unicode="v" horiz-adv-x="167" 
d="M167 335q11 0 11 -10.5t-11 -10.5q-35 -1 -73 -6l-1 -1q-12 -13 -21.5 -27t-19.5 -28q-9 -14 -18 -27l-18 -26q-3 -4 -9 -10q-8 -5 -16 -2t-10 12q-2 7 -2 13.5v12.5q0 5 0.5 9.5t0.5 9.5q4 27 7.5 44.5t6.5 27t4.5 13.5l1.5 4q0 1 0.5 1t0.5 1q7 5 13 1q10 -4 6 -13
l-9 -36q-4 -15 -6 -30.5t-4 -31.5v-8q2 3 6 7q12 19 24 37.5t25 36.5q9 12 19 22q6 8 26 11h3h2q15 2 30.5 2.5t30.5 1.5z" />
    <glyph glyph-name="w" unicode="w" horiz-adv-x="255" 
d="M267 324q2 -9 -9 -11q-23 -1 -46.5 -2t-46.5 -2v-1q-7 -13 -14 -25.5t-14 -25.5q-17 -30 -33.5 -60.5t-33.5 -60.5q-4 -9 -13 -18q-2 -4 -6 -5q-9 -5 -17 0.5t-10 16.5q-2 13 0 27q2 21 5 41t8 40q1 2 1 4l-14 -15l-24 -30q-3 -4 -6 -7.5t-7 -5.5q-4 -4 -12 -4
q-6 0 -10.5 5t-4.5 12q-2 18 1 31q4 27 17 54l18 45l4 8q1 2 3 3q4 2 9 1q2 -1 2.5 -1.5t2.5 -1.5q9 -4 5 -14q-7 -17 -14 -34.5t-14 -34.5q-4 -8 -5.5 -14t-2.5 -11t-1 -9q2 2 2 3q14 17 27.5 34t27.5 34q6 6 10 8q5 5 13 0t8 -14q0 -5 -2 -13q-4 -18 -8.5 -35.5
t-8.5 -34.5q-2 -13 -3.5 -25t-3.5 -25v-3l3 3q11 20 21.5 39t21.5 39q12 22 24 43.5t23 44.5q3 5 6.5 7t6.5 4q4 2 8 2q23 2 46.5 2.5t46.5 2.5q11 0 13 -11z" />
    <glyph glyph-name="x" unicode="x" horiz-adv-x="101" 
d="M115 333q2 -1 4 -4t-2 -8l-12 -18t-21 -32t-20.5 -31.5t-10.5 -15.5l-9 -12q-4 -5 -8 -10.5t-9 -10.5q-5 -7 -15 -7q-12 -2 -19 12q-2 3 -3 6.5t-3 6.5l-1 -1l-39 -69q-3 -6 -3 -13q-2 -9 -7 -10q-7 -1 -13 6q-6 9 -2 18q3 7 5.5 13.5t6.5 13.5q12 20 24 39.5t24 39.5
q2 3 4 11q2 13 4.5 25t4.5 25v2l4 21q2 5 2.5 10.5t1.5 10.5t5 6.5t8 0.5t7 -4.5t2 -8.5l-4 -18t-4 -19q0 -4 -0.5 -7.5t-1.5 -8.5q4 5 8 10.5t9 10.5q2 3 4.5 5.5t4.5 5.5q2 1 3.5 2t3.5 1q3 1 6 0q7 -3 6 -9q-1 -4 -3 -7l-6 -10l-2 -2l-2 -2q-10 -14 -19 -27t-19 -27
q-1 -1 -1 -3q1 -8 1 -15t1 -15l1 -2q3 3 9 11q1 2 2.5 3.5t2.5 3.5l75 104q3 2 5 4t7 0q2 0 3 -1z" />
    <glyph glyph-name="y" unicode="y" horiz-adv-x="186" 
d="M184 332q4 4 8 3.5t7 -3.5t3.5 -7t-2.5 -8q-30 -32 -58.5 -64.5t-55.5 -66.5l-41 -51l-6 -18q-2 -6 -3 -8q-2 -3 -2.5 -6t-2.5 -6v-1q-9 -23 -17.5 -47t-18.5 -47q-14 -38 -33 -79q-4 -8 -8.5 -16t-9.5 -16q-2 -3 -5 -6l-5 -5q-9 -7 -17 -2q-10 6 -10 17q1 8 2 15t3 14
q5 21 13 40t17 38q16 33 34.5 64.5t39.5 61.5q5 7 7 14t5 15q8 25 16.5 50t16.5 50q3 8 5.5 15.5t4.5 15.5q-1 -2 -2 -2.5t-2 -1.5l-24 -20t-25 -20q-9 -5 -17 -8q-9 -2 -16.5 2.5t-9.5 15.5q-2 5 -1.5 10t0.5 10q6 17 11 30q5 11 9.5 21t9.5 12q5 0 8 -4q3 -2 3.5 -6.5
t-1.5 -6.5q-5 -6 -7.5 -12.5t-4.5 -14.5q-2 -7 -3 -13.5t-3 -14.5v-7q3 2 6 3.5t5 3.5q12 10 23.5 19t22.5 19q6 5 12 10.5t13 11.5q3 3 5 4q8 5 16 0t6 -16l-4 -12l-4 -12l-12 -34t-11 -34l-11 -31l10 13q54 66 111 129zM-65 -79q13 24 22.5 49t20.5 51
q-14 -24 -24.5 -48.5t-18.5 -51.5z" />
    <glyph glyph-name="z" unicode="z" horiz-adv-x="239" 
d="M253 313q-34 -32 -67 -63.5t-67 -63.5q-3 -3 -1 -8q6 -17 7.5 -33.5t-0.5 -33.5q-4 -38 -16.5 -73t-31.5 -67q-19 -31 -41.5 -57t-51.5 -48q-25 -18 -52 -31t-58 -20q-15 -4 -34 -1q-16 3 -26.5 14t-12.5 27q-4 24 7 48q8 21 21.5 39.5t27.5 35.5q23 27 48.5 51.5
t52.5 47.5q63 57 125 110q0 1 2 3q-8 13 -21 19q-16 8 -30 8h-23q-2 0 -3.5 -0.5t-3.5 0.5q-10 1 -14 8t1 15q6 8 9 11q14 14 27 27.5t27 27.5q5 4 8.5 8.5t8.5 9.5t9 9.5t8 10.5q-20 -7 -41 -13.5t-42 -12.5q-10 -3 -13 7t7 13q22 7 43 13.5t43 13.5q5 2 9 2q10 0 15 -7
q1 0 1 -1q7 -10 1 -22q-6 -14 -15 -23q-32 -35 -64 -67q-1 -2 -4 -5q23 -1 41.5 -9t33.5 -27l12 12q28 26 55.5 52.5t55.5 53.5q2 2 4.5 4t5.5 4q10 8 18 -2q7 -9 -1 -17zM89 58q6 19 9.5 39t2.5 41q0 7 -1 13.5t-2 13.5l-3 -2q-31 -26 -61 -53t-60 -53q-24 -21 -47 -43
t-44 -46q-14 -16 -26.5 -32t-21.5 -35q-5 -9 -8 -18t-3 -20q1 -23 24 -25q5 -1 9.5 -0.5t9.5 1.5q26 5 49 16t44 26q47 33 78.5 77.5t50.5 99.5z" />
    <glyph glyph-name="braceleft" unicode="{" horiz-adv-x="165" 
d="M256 616q7 -4 2 -12q-4 -6 -12 -6q-22 4 -46 -15q-19 -18 -33 -44q-15 -25 -27 -51.5t-23 -53.5q-9 -24 -19 -47t-21 -47q-16 -32 -44 -60q-3 -3 -6.5 -5.5t-6.5 -5.5q4 -2 5 -3q14 -5 11 -20q-2 -7 -3.5 -15t-3.5 -16q-5 -15 -9.5 -30.5t-8.5 -31.5q-7 -32 -13 -62
t-11 -62l-4 -34t0 -34q1 -5 1.5 -10.5t2.5 -9.5q5 -12 17 -17q11 -6 22 -9q3 -1 5 -2q3 -3 2 -7q-2 -6 -8.5 -9t-11.5 -1q-9 2 -17.5 6.5t-16.5 9.5q-11 9 -14 24q-4 11 -4.5 23t0.5 25q2 30 7 60t11 60q4 17 7.5 34.5t8.5 34.5q3 13 7 26t7 27q2 5 3 9l2 8q0 3 -2 4
t-5.5 2.5t-5.5 3.5q-5 4 -5.5 10.5t4.5 11.5q3 4 6 7.5t6 5.5q20 17 33 37t23 43q11 25 20.5 49.5t19.5 50.5q10 21 19.5 41t21.5 40q7 11 14 21t16 20q29 29 67 28q4 0 10 -2z" />
    <glyph glyph-name="bar" unicode="|" horiz-adv-x="180" 
d="M129 607q1 4 4 6t7 2t6.5 -2t1.5 -6q-9 -38 -17.5 -76.5t-19.5 -77.5q-16 -69 -31.5 -137t-32.5 -137q-16 -69 -32 -137.5t-32 -137.5q-1 -4 -4 -6t-6.5 -2t-6 2t-1.5 6q8 38 16.5 76.5t18.5 77.5q17 69 32.5 137.5t32.5 137.5q16 69 32 137t32 137z" />
    <glyph glyph-name="braceright" unicode="}" horiz-adv-x="177" 
d="M74 258q-12 7 -12 20q0 8 3 19q10 27 19.5 55t19.5 55q9 26 18 51.5t18 51.5q5 16 9.5 31.5t7.5 32.5v14q0 9 -9 10q-1 0 -2 1q-10 2 -5 11q3 8 13 8q15 -2 20.5 -10t5.5 -22q-2 -25 -10 -46q-20 -66 -43 -128q-8 -25 -16.5 -49.5t-17.5 -49.5q-3 -6 -4.5 -12t-3.5 -13
t4 -10q2 -2 4.5 -2.5t4.5 -2.5q14 -7 1 -20q-1 -4 -8 -7q-11 -6 -14 -20q-5 -20 -9 -39.5t-8 -39.5q-14 -61 -42 -122q-14 -34 -30 -62q-21 -35 -57 -61q-3 -2 -7 -4l-8 -4q-7 -3 -12 4q-5 3 0 10q2 5 9 8q6 2 8 4q38 26 57 69q22 43 39 89q11 29 18 58.5t13 58.5q2 8 4 17
t4 17t6 15t12 14z" />
    <glyph glyph-name="asciitilde" unicode="~" horiz-adv-x="202" 
d="M34 266l-7.5 -7.5t-5.5 -9.5q-5 -9 -12 -5q-9 3 -7 13q0 4 4 8q5 8 10.5 13.5t10.5 11.5q2 2 4.5 3t4.5 2q5 2 10.5 -1t7.5 -10q1 -5 1 -13v-14q2 0 2.5 0.5t2.5 1.5q11 8 21.5 16t21.5 16q1 2 6 5q6 1 12 -6q4 -6 1 -13l-2 -2q-14 -9 -26 -18.5t-24 -19.5l-7 -3.5
t-8 -2.5q-7 -2 -12 2.5t-7 13.5q-1 3 -1 10q0 6 1 8q-1 0 -1 0.5t-1 0.5z" />
    <glyph glyph-name="quoteleft" unicode="&#x2018;" horiz-adv-x="158" 
d="M152 608l-4 -14q-3 -8 -5.5 -16t-5.5 -16l-4 -9q-6 -6 -14 -3q-7 3 -5 12l18 49q3 8 12 8q8 -2 8 -9v-2z" />
    <glyph glyph-name="quoteright" unicode="&#x2019;" horiz-adv-x="158" 
d="M152 608l-4 -14q-3 -8 -5.5 -16t-5.5 -16l-4 -9q-6 -6 -14 -3q-7 3 -5 12l18 49q3 8 12 8q8 -2 8 -9v-2z" />
    <glyph glyph-name="quotedblleft" unicode="&#x201c;" horiz-adv-x="173" 
d="M174 607l-5 -14q-2 -8 -4.5 -16t-5.5 -16q-1 -3 -5 -9q-5 -6 -13 -3q-8 4 -5 12l18 49q3 8 12 8q7 -2 8 -9v-2zM134 623q9 -3 5 -14l-4 -11q-2 -5 -3 -8.5t-2 -8.5q-3 -11 -12 -11q-5 0 -8 4.5t-1 10.5l8 23q2 6 4 9q5 9 13 6z" />
    <glyph glyph-name="quotedblright" unicode="&#x201d;" horiz-adv-x="173" 
d="M174 607l-5 -14q-2 -8 -4.5 -16t-5.5 -16q-1 -3 -5 -9q-5 -6 -13 -3q-8 4 -5 12l18 49q3 8 12 8q7 -2 8 -9v-2zM134 623q9 -3 5 -14l-4 -11q-2 -5 -3 -8.5t-2 -8.5q-3 -11 -12 -11q-5 0 -8 4.5t-1 10.5l8 23q2 6 4 9q5 9 13 6z" />
  </font>
</defs>
</svg>
